<?xml version="1.0" encoding="utf-8"?>
<!-- Generator: Adobe Illustrator 27.5.0, SVG Export Plug-In . SVG Version: 6.00 Build 0)  -->
<svg version="1.1" xmlns="http://www.w3.org/2000/svg" xmlns:xlink="http://www.w3.org/1999/xlink" x="0px" y="0px"
	 viewBox="0 0 3710 3710" style="enable-background:new 0 0 3710 3710;" xml:space="preserve">
<g id="Background">
	<g>
		<g>
			<rect style="fill:#FFFFFF;" width="3710" height="3710"/>
		</g>
	</g>
</g>
<g id="Illustration">
	<g>
		<linearGradient id="SVGID_1_" gradientUnits="userSpaceOnUse" x1="3583.1453" y1="4057.8403" x2="1121.0475" y2="1000.0694">
			<stop  offset="0" style="stop-color:#DAE3FE"/>
			<stop  offset="1" style="stop-color:#E9EFFD"/>
		</linearGradient>
		<path style="fill:url(#SVGID_1_);" d="M2905.807,2851.966c-56.553,59.537-110.064,97.932-152.341,128.266
			c-496.963,356.576-1085.002,252.636-1209.978,227.253c-184.549-37.483-541.277-109.936-799.186-413.231
			c-390.194-458.86-329.435-1181.781-26.774-1658.992c55.361-87.29,347.797-571.769,942.169-649.464
			c359.708-47.02,779.012,47.814,1082.661,302.211C3379.743,1322.011,3334.368,2400.79,2905.807,2851.966z"/>
		<g>
			<g>
				<path style="fill:#91B3FA;" d="M1041.459,1719.134c0,0,6.522-274.215-119.779-347.607
					c-126.3-73.392-366.442-119.277-375.443-513.023c-5.27-230.517-10.974-331.303-14.797-375.249
					c-1.491-17.143,13.743-30.98,30.653-27.795c119.617,22.534,508.201,115.285,589.671,380.511
					C1248.346,1150.398,1041.459,1719.134,1041.459,1719.134z"/>
				<path style="fill:#BDD0FB;" d="M654.601,565.011c131.304,117.104,283.132,324.355,364.058,531.606
					c10.388,34.156,40.773,106.793,53.969,235.85c11.785,107.635,5.927,221.373-8.364,296.663c-0.904,4.76-5.494,7.886-10.254,6.982
					c-8.185-1.553-7.096-10.355-7.022-10.078c16.32-128.633,9.546-288.738-27.851-433.2
					c-47.777-177.382-154.34-349.36-264.56-495.222l-11.342-14.363c-85.394-109.667-103.372-110.474-95.388-118.119
					C649.731,563.325,652.682,563.309,654.601,565.011z"/>
			</g>
			<g>
				<path style="fill:#BDD0FB;" d="M1244.428,2246.349c17.088,8.379-161.772-216.538-217.8-569.788
					c-26.402-166.46-26.747-375.021-121.569-455.393c-78.918-66.891-347.466-24.66-435.336-8.611
					c-10.98,2.005-14.676,15.875-6.129,23.053c42.138,35.389,132.279,118.862,155.766,202.987
					c30.958,110.884,136.377,181.412,230.754,200.499c94.377,19.087,146.877,37.61,192.855,188.54
					C1088.947,1978.567,1195.874,2222.541,1244.428,2246.349z"/>
				
					<linearGradient id="SVGID_00000080178813306856144280000012198861765103717015_" gradientUnits="userSpaceOnUse" x1="590.7919" y1="1492.1097" x2="1023.3986" y2="1492.1097">
					<stop  offset="0" style="stop-color:#DAE3FE"/>
					<stop  offset="1" style="stop-color:#E9EFFD"/>
				</linearGradient>
				<path style="fill:url(#SVGID_00000080178813306856144280000012198861765103717015_);" d="M593.306,1259.406
					c112.107,4.695,232.446,55.835,293.513,151.762l5.764,9.154c13.313,21.463,88.759,174.044,130.663,300.524
					c0.521,1.577-0.333,3.279-1.909,3.801c-2.678,0.887-4.02-2.061-3.764-1.8c-29.195-71.452-71.126-162.042-104.521-229.786
					c-35.814-73.923-60.876-123.985-142.565-171.938c-90.923-51.643-177.786-56.959-177.525-56.906
					c-1.326-0.135-2.291-1.32-2.155-2.645C590.935,1260.297,592.043,1259.356,593.306,1259.406z"/>
			</g>
			<g>
				<path style="fill:#91B3FA;" d="M1167.753,2275.937c10.141,5.347-57.119-110.421-62.28-212.414
					c-5.161-101.993-28.171-276.072-116.125-380.205c-87.954-104.133-184.272-113.633-305.638-18.967
					c-101.138,78.888-164.225,118.7-201.224,126.101c-9.161,1.832-13.837,12.175-9.378,20.385
					c23.73,43.7,90.821,144.081,203.47,137.013c143.691-9.014,317.834-102.424,370.911-24.5
					c53.077,77.923,46.261,121.524,47.892,158.453C1097.012,2118.733,1100.647,2240.555,1167.753,2275.937z"/>
				<path style="fill:#BDD0FB;" d="M724.484,1789.386c44.02-42.201,115.712-83.672,178.368-75.939
					c81.52,13.131,135.824,67.57,165.447,148.606c11.58,34.409,16.343,52.776,23.189,94.954c0.547,3.368-4.421,4.374-5.248,1.086
					c-4.982-19.811-9.916-40.554-17.297-62.008c-42.968-138.416-134.691-157.06-138.259-159.893
					c-6.934,0.684-48.973-30.786-148.722,22.889c-18.627,10.139-36.758,21.712-53.781,34.477l-0.094,0.071
					c-1.232,0.924-2.979,0.674-3.903-0.558C723.328,1791.929,723.479,1790.347,724.484,1789.386z"/>
			</g>
		</g>
		<g>
			<g>
				<g style="opacity:0.3;">
					<path style="fill:#BDD0FB;" d="M2579.454,813.169c-3.211-3.261-3.505-8.49-0.531-12.1c6.501-7.898,13.443-15.629,20.631-22.981
						c3.497-3.577,9.231-3.643,12.806-0.146c0.042,0.043,0.083,0.084,0.124,0.126c3.452,3.506,3.476,9.147,0.021,12.68
						c-6.829,6.984-13.422,14.329-19.599,21.83c-3.178,3.861-8.886,4.416-12.748,1.235
						C2579.908,813.61,2579.675,813.393,2579.454,813.169z M2636.078,758.238c-0.248-0.252-0.485-0.523-0.708-0.81
						c-3.066-3.951-2.349-9.641,1.602-12.707c8.117-6.296,16.583-12.309,25.163-17.867c4.198-2.72,9.782-1.53,12.526,2.674
						c2.719,4.198,1.518,9.805-2.676,12.523c-8.155,5.285-16.198,10.996-23.911,16.982
						C2644.41,761.876,2639.253,761.463,2636.078,758.238z M2703.389,717.142c-0.708-0.718-1.306-1.569-1.756-2.535
						c-2.107-4.535-0.143-9.921,4.392-12.031c9.294-4.325,18.894-8.299,28.531-11.81c4.701-1.71,9.893,0.716,11.609,5.408
						c1.711,4.698-0.71,9.897-5.408,11.609c-9.152,3.334-18.265,7.107-27.093,11.214
						C2710.096,720.657,2706,719.794,2703.389,717.142z M2778.215,692.123c-1.169-1.187-2.024-2.711-2.396-4.461
						c-1.042-4.891,2.079-9.701,6.969-10.744c10.034-2.135,20.281-3.864,30.455-5.137c4.959-0.615,9.484,2.901,10.109,7.863
						c0.62,4.961-2.9,9.487-7.863,10.109c-9.662,1.208-19.395,2.848-28.929,4.881
						C2783.419,695.302,2780.313,694.254,2778.215,692.123z M2856.739,684.419c-1.639-1.665-2.637-3.959-2.601-6.479
						c0.069-5.002,4.18-9,9.179-8.928c10.232,0.142,20.604,0.725,30.821,1.735c4.978,0.487,8.616,4.919,8.124,9.899
						c-0.492,4.976-4.924,8.613-9.902,8.123c-9.712-0.961-19.57-1.514-29.293-1.65
						C2860.585,687.085,2858.352,686.057,2856.739,684.419z M2935.007,694.276c-2.123-2.156-3.119-5.326-2.356-8.484
						c1.175-4.862,6.065-7.851,10.927-6.679c9.963,2.405,19.949,5.268,29.676,8.512c4.746,1.584,7.308,6.711,5.725,11.457
						c-1.58,4.742-6.71,7.307-11.454,5.725c-9.243-3.081-18.728-5.802-28.196-8.088
						C2937.624,696.309,2936.152,695.44,2935.007,694.276z M3183.174,915.606c-0.88-0.894-1.585-1.983-2.045-3.236
						c-3.346-9.136-7.136-18.249-11.266-27.083c-2.117-4.53-0.162-9.92,4.367-12.036c4.53-2.12,9.92-0.164,12.039,4.367
						c4.35,9.304,8.344,18.901,11.868,28.521c1.721,4.697-0.694,9.898-5.389,11.618
						C3189.304,919.019,3185.589,918.058,3183.174,915.606z M3009.096,721.216c-2.635-2.677-3.42-6.831-1.655-10.383
						c2.226-4.48,7.661-6.306,12.139-4.082c9.181,4.56,18.274,9.576,27.028,14.908c4.258,2.621,5.628,8.172,3.025,12.445
						c-2.601,4.271-8.173,5.624-12.446,3.024c-8.313-5.065-16.948-9.827-25.665-14.158
						C3010.596,722.509,3009.782,721.913,3009.096,721.216z M3147.865,845.065c-0.419-0.426-0.805-0.898-1.144-1.418
						c-5.309-8.16-11.043-16.198-17.037-23.893c-3.072-3.947-2.365-9.637,1.58-12.71c3.946-3.071,9.651-2.383,12.709,1.58
						c6.305,8.098,12.339,16.556,17.928,25.141c2.728,4.192,1.541,9.803-2.65,12.53
						C3155.581,848.683,3150.823,848.069,3147.865,845.065z M3075.309,764.031c-3.206-3.257-3.505-8.476-0.542-12.087
						c3.172-3.868,8.877-4.431,12.747-1.262c7.917,6.494,15.661,13.416,23.012,20.58c0.047,0.043,0.093,0.089,0.138,0.135
						c3.447,3.501,3.476,9.132,0.033,12.668c-3.491,3.584-9.223,3.66-12.805,0.168c-6.985-6.802-14.341-13.376-21.865-19.545
						C3075.775,764.479,3075.534,764.259,3075.309,764.031z"/>
					<path style="fill:#BDD0FB;" d="M3199.552,977.048c-1.251-1.271-2.143-2.922-2.467-4.814c-0.788-4.602-1.689-9.263-2.669-13.858
						c-1.046-4.889,2.072-9.704,6.961-10.748c4.89-1.047,9.71,2.068,10.748,6.964c1.034,4.832,1.979,9.734,2.811,14.577
						c0.846,4.928-2.465,9.612-7.391,10.457C3204.506,980.148,3201.563,979.089,3199.552,977.048z"/>
				</g>
				<g style="opacity:0.3;">
					<path style="fill:#BDD0FB;" d="M3136.287,1245.783c-3.066-3.114-3.507-8.079-0.834-11.713
						c2.767-3.759,5.502-7.641,8.126-11.535c2.796-4.148,8.424-5.244,12.571-2.449c4.164,2.808,5.242,8.425,2.448,12.571
						c-2.764,4.099-5.644,8.188-8.556,12.147c-2.964,4.028-8.632,4.891-12.661,1.927
						C3136.985,1246.441,3136.621,1246.121,3136.287,1245.783z"/>
					<path style="fill:#BDD0FB;" d="M2600.974,1284.682c-2.923-2.969-5.807-6-8.651-9.089c-3.385-3.681-3.149-9.41,0.531-12.797
						c3.68-3.387,9.438-3.145,12.797,0.529c6.564,7.131,13.402,13.98,20.406,20.429c3.677,3.397,3.916,9.115,0.53,12.795
						c-3.389,3.682-9.119,3.917-12.798,0.53C2609.456,1293.09,2605.145,1288.918,2600.974,1284.682z M2562.427,1238.285
						c-0.355-0.36-0.686-0.757-0.985-1.187c-5.775-8.29-11.262-16.919-16.308-25.644c-2.504-4.328-1.024-9.868,3.303-12.371
						c4.331-2.504,9.885-1.026,12.373,3.306c4.793,8.287,10.007,16.481,15.492,24.362c2.858,4.103,1.848,9.747-2.254,12.604
						C2570.372,1241.913,2565.465,1241.371,2562.427,1238.285z M2651.001,1326.847c-2.996-3.042-3.502-7.877-0.979-11.511
						c2.855-4.109,8.497-5.124,12.605-2.272c7.856,5.459,16.054,10.654,24.371,15.441c4.33,2.503,5.824,8.033,3.329,12.366
						c-2.497,4.335-8.034,5.825-12.368,3.329c-8.757-5.042-17.391-10.515-25.666-16.262
						C2651.822,1327.61,2651.391,1327.242,2651.001,1326.847z M2525.336,1170.064c-0.807-0.819-1.466-1.807-1.928-2.936
						c-3.808-9.348-7.262-18.973-10.267-28.604c-1.489-4.774,1.174-9.85,5.948-11.338c4.777-1.491,9.852,1.168,11.341,5.948
						c2.853,9.144,6.132,18.283,9.75,27.161c1.889,4.63-0.339,9.916-4.969,11.802
						C2531.71,1173.523,2527.834,1172.601,2525.336,1170.064z M2719.232,1363.779c-2.457-2.496-3.34-6.307-1.94-9.76
						c1.879-4.635,7.161-6.869,11.796-4.99c8.86,3.595,18.001,6.859,27.167,9.705c4.776,1.483,7.448,6.556,5.962,11.335
						c-1.484,4.775-6.556,7.443-11.332,5.96c-9.651-2.995-19.274-6.432-28.604-10.216
						C2721.101,1365.334,2720.073,1364.633,2719.232,1363.779z M2793.917,1384.846c-1.964-1.995-2.979-4.87-2.485-7.843
						c0.821-4.934,5.486-8.268,10.419-7.447c9.462,1.573,19.1,2.766,28.645,3.547c4.986,0.4,8.696,4.769,8.29,9.761
						c-0.408,4.986-4.778,8.695-9.763,8.29c-10.046-0.821-20.188-2.077-30.144-3.734
						C2796.919,1387.094,2795.212,1386.161,2793.917,1384.846z M2871.417,1389.129c-1.494-1.517-2.461-3.563-2.586-5.858
						c-0.274-4.992,3.554-9.262,8.547-9.535c9.587-0.523,19.252-1.455,28.735-2.774c4.952-0.688,9.526,2.763,10.215,7.723
						c0.687,4.953-2.768,9.526-7.724,10.215c-9.978,1.386-20.154,2.369-30.24,2.92
						C2875.666,1391.968,2873.177,1390.916,2871.417,1389.129z M2948.002,1376.41c-1.035-1.051-1.826-2.369-2.256-3.89
						c-1.358-4.813,1.442-9.814,6.255-11.172c9.235-2.605,18.46-5.633,27.423-9.003c4.681-1.759,9.907,0.614,11.664,5.287
						c1.761,4.682-0.608,9.904-5.29,11.664c-9.441,3.55-19.157,6.74-28.877,9.482
						C2953.625,1379.706,2950.244,1378.687,2948.002,1376.41z M3019.954,1347.177c-0.582-0.591-1.091-1.274-1.506-2.039
						c-2.386-4.394-0.756-9.893,3.639-12.276c8.411-4.566,16.738-9.55,24.753-14.82c4.18-2.748,9.8-1.572,12.54,2.593
						c2.749,4.178,1.587,9.795-2.593,12.543c-8.438,5.547-17.204,10.796-26.06,15.6
						C3027.098,1350.746,3022.714,1349.979,3019.954,1347.177z M3083.683,1302.88c-0.13-0.132-0.257-0.271-0.381-0.412
						c-3.285-3.77-2.892-9.491,0.879-12.775c5.323-4.637,10.564-9.493,15.586-14.437c1.817-1.789,3.611-3.597,5.38-5.416
						c3.488-3.586,9.222-3.666,12.805-0.178c3.699,3.459,3.665,9.219,0.181,12.803c-1.862,1.916-3.747,3.813-5.66,5.696
						c-5.281,5.199-10.798,10.309-16.396,15.186C3092.449,1306.51,3087.015,1306.264,3083.683,1302.88z"/>
					<path style="fill:#BDD0FB;" d="M2504.15,1095.137c-1.263-1.283-2.157-2.952-2.476-4.859c-0.805-4.836-1.523-9.781-2.134-14.696
						c-0.618-4.964,2.905-9.488,7.868-10.104c4.963-0.615,9.487,2.9,10.104,7.868c0.581,4.669,1.264,9.366,2.027,13.958
						c0.823,4.93-2.51,9.597-7.443,10.419C2509.071,1098.224,2506.147,1097.166,2504.15,1095.137z"/>
				</g>
				<g>
					<path style="fill:#BDD0FB;" d="M2587.568,1030.155c-0.196,1.794,0.768,3.517,2.401,4.287l46.588,21.978
						c2.912,23.879,9.652,47.466,20.344,69.795l-27.435,43.559c-0.963,1.528-0.849,3.498,0.281,4.906l38.691,48.174
						c1.131,1.408,3.031,1.943,4.729,1.334l48.452-17.391c19.497,15.257,41.073,26.928,63.762,34.923l11.408,50.233
						c0.4,1.76,1.873,3.074,3.667,3.27l61.423,6.705c1.796,0.196,3.518-0.769,4.287-2.402l21.978-46.588
						c23.879-2.912,47.467-9.653,69.795-20.344l43.56,27.435c1.528,0.962,3.497,0.849,4.906-0.281l48.175-38.692
						c1.408-1.13,1.943-3.03,1.333-4.729l-17.391-48.453c15.258-19.496,26.929-41.072,34.923-63.761l50.234-11.409
						c1.759-0.4,3.073-1.873,3.269-3.667l6.705-61.423c0.197-1.796-0.769-3.517-2.401-4.287l-46.588-21.977
						c-2.911-23.879-9.652-47.467-20.344-69.795l27.436-43.56c0.962-1.527,0.849-3.497-0.281-4.906l-38.692-48.174
						c-1.13-1.408-3.03-1.943-4.729-1.333l-48.452,17.391c-19.496-15.258-41.073-26.929-63.762-34.923l-11.408-50.232
						c-0.399-1.761-1.873-3.075-3.668-3.27l-61.423-6.705c-1.795-0.196-3.516,0.768-4.287,2.401l-21.978,46.588
						c-23.879,2.911-47.467,9.653-69.795,20.344l-43.559-27.435c-1.527-0.962-3.498-0.849-4.905,0.282l-48.174,38.691
						c-1.408,1.131-1.944,3.03-1.334,4.73l17.391,48.452c-15.257,19.496-26.928,41.072-34.923,63.761l-50.233,11.409
						c-1.761,0.4-3.073,1.872-3.27,3.668L2587.568,1030.155z"/>
					
						<linearGradient id="SVGID_00000059992957807092285070000005699730885482629279_" gradientUnits="userSpaceOnUse" x1="2798.5261" y1="1028.8835" x2="2922.7317" y2="1028.8835">
						<stop  offset="0" style="stop-color:#DAE3FE"/>
						<stop  offset="1" style="stop-color:#E9EFFD"/>
					</linearGradient>
					<path style="fill:url(#SVGID_00000059992957807092285070000005699730885482629279_);" d="M2816.322,1072.432
						c-21.241-21.574-24.05-56.115-5.273-80.978c20.642-27.33,59.664-32.769,86.993-12.131
						c13.243,9.997,21.793,24.554,24.083,40.982c2.292,16.43-1.952,32.77-11.952,46.008c-20.642,27.33-59.664,32.769-86.993,12.131
						C2820.717,1076.583,2818.427,1074.57,2816.322,1072.432z M2894.62,995.541c-1.64-1.666-3.41-3.222-5.31-4.657
						c-20.952-15.825-50.875-11.65-66.698,9.3c-15.825,20.954-11.664,50.878,9.3,66.7c20.951,15.825,50.874,11.651,66.698-9.3
						c7.667-10.152,10.921-22.678,9.164-35.277C2906.345,1012.068,2901.744,1002.776,2894.62,995.541z"/>
					
						<linearGradient id="SVGID_00000178898850929136943220000010159241248142053554_" gradientUnits="userSpaceOnUse" x1="2718.481" y1="1028.9615" x2="3014.6577" y2="1028.9615">
						<stop  offset="0" style="stop-color:#DAE3FE"/>
						<stop  offset="1" style="stop-color:#E9EFFD"/>
					</linearGradient>
					<path style="fill:url(#SVGID_00000178898850929136943220000010159241248142053554_);" d="M2753.29,1136.272
						c-3.648-3.705-7.131-7.615-10.432-11.724l0,0c-1.039-1.293-2.057-2.604-3.055-3.93c-4.916-6.54-9.303-13.462-13.095-20.656
						c-0.052-0.098-0.104-0.196-0.156-0.294c-0.146-0.279-0.291-0.557-0.434-0.839c-0.282-0.544-0.558-1.091-0.833-1.637
						c-0.722-1.439-0.395-3.128,0.693-4.202c0.264-0.26,0.575-0.484,0.924-0.66c1.788-0.896,3.961-0.167,4.859,1.617
						c4.609,9.204,10.243,17.972,16.743,26.061c32.273,40.196,81.694,58.688,129.49,53.449
						c26.585-2.911,52.669-13.168,75.021-31.123c3.92-3.147,7.653-6.47,11.186-9.951c23.782-23.42,38.662-54.051,42.331-87.679
						c4.218-38.627-6.86-76.586-31.191-106.879c-50.257-62.561-141.976-72.553-204.511-22.326
						c-3.856,3.097-7.541,6.377-11.041,9.826c-15.169,14.94-26.901,33.033-34.289,53.022c-0.192,0.516-0.486,0.963-0.855,1.324
						c-0.968,0.953-2.438,1.32-3.797,0.817c-1.875-0.7-2.84-2.773-2.141-4.655c7.757-20.985,20.073-39.983,35.998-55.668
						c3.674-3.62,7.541-7.062,11.587-10.314c65.657-52.734,161.982-42.197,214.698,23.435
						c25.545,31.804,37.172,71.651,32.744,112.203c-3.852,35.303-19.474,67.46-44.439,92.047c-3.71,3.653-7.628,7.141-11.741,10.445
						c-31.807,25.545-71.654,37.174-112.204,32.748C2810.041,1176.877,2777.879,1161.246,2753.29,1136.272z"/>
				</g>
			</g>
			<g>
				<g style="opacity:0.3;">
					<path style="fill:#BDD0FB;" d="M2144.792,681.369c-1.881-1.911-2.368-4.898-0.996-7.361c2.557-4.598,5.289-9.183,8.121-13.623
						c1.84-2.885,5.668-3.733,8.558-1.894c2.898,1.831,3.733,5.672,1.894,8.558c-2.698,4.231-5.302,8.6-7.744,12.988
						c-1.661,2.989-5.435,4.064-8.43,2.404C2145.666,682.144,2145.198,681.781,2144.792,681.369z"/>
					<path style="fill:#BDD0FB;" d="M2171.698,642.006c-2.204-2.238-2.399-5.827-0.353-8.295
						c5.777-6.979,11.98-13.741,18.433-20.094c1.359-1.338,2.737-2.664,4.132-3.983c2.494-2.35,6.451-2.015,8.766,0.25
						c2.35,2.49,2.235,6.412-0.25,8.762c-1.334,1.259-2.653,2.526-3.951,3.804c-6.155,6.06-12.071,12.509-17.582,19.163
						c-2.184,2.639-6.088,3.005-8.727,0.825C2172.002,642.297,2171.844,642.154,2171.698,642.006z M2218.503,597.834
						c-0.206-0.209-0.403-0.435-0.581-0.676c-2.029-2.759-1.44-6.639,1.317-8.67c8.843-6.514,18.169-12.537,27.715-17.896
						c2.986-1.678,6.768-0.598,8.439,2.369c1.676,2.988,0.617,6.761-2.368,8.439c-9.108,5.115-18.002,10.86-26.437,17.071
						C2224.076,600.32,2220.631,599.995,2218.503,597.834z M2274.622,566.332c-0.552-0.56-1.004-1.236-1.322-2.007
						c-1.293-3.169,0.233-6.787,3.402-8.08c10.155-4.137,20.682-7.689,31.284-10.542c3.31-0.893,6.701,1.06,7.596,4.375
						c0.89,3.303-1.069,6.706-4.371,7.595c-10.112,2.723-20.146,6.103-29.83,10.053
						C2278.984,568.701,2276.331,568.069,2274.622,566.332z M2336.771,549.59c-0.901-0.915-1.522-2.115-1.719-3.48
						c-0.475-3.39,1.889-6.528,5.278-7.002c10.882-1.526,21.948-2.391,32.903-2.567c3.423-0.052,6.237,2.685,6.294,6.099
						c0.057,3.422-2.672,6.241-6.099,6.298c-10.439,0.165-21,0.99-31.374,2.446C2340.031,551.668,2338.102,550.942,2336.771,549.59z
						 M2401.121,548.535c-1.257-1.277-1.954-3.089-1.748-5.011c0.363-3.401,3.417-5.865,6.821-5.504
						c10.91,1.168,21.853,3.016,32.521,5.501c3.341,0.771,5.41,4.106,4.633,7.441c-0.777,3.335-4.11,5.41-7.441,4.633
						c-10.181-2.369-20.618-4.134-31.029-5.245C2403.396,550.19,2402.091,549.52,2401.121,548.535z M2463.77,563.128
						c-1.628-1.654-2.255-4.163-1.402-6.489c1.178-3.211,4.74-4.857,7.953-3.681c10.299,3.782,20.46,8.244,30.192,13.264
						c3.046,1.584,4.234,5.31,2.668,8.352c-1.567,3.041-5.308,4.236-8.348,2.668c-9.283-4.787-18.966-9.04-28.784-12.645
						C2465.159,564.271,2464.392,563.76,2463.77,563.128z M2520.934,592.588c-2.038-2.07-2.396-5.358-0.696-7.842
						c1.933-2.825,5.791-3.549,8.618-1.617c9.026,6.174,17.781,12.996,26.029,20.277c2.533,2.314,2.806,6.19,0.539,8.753
						c-2.265,2.566-6.181,2.807-8.749,0.544c-7.863-6.95-16.214-13.456-24.82-19.343
						C2521.516,593.128,2521.21,592.868,2520.934,592.588z M2589.01,660.61c-0.25-0.254-0.486-0.537-0.696-0.844
						c-5.116-7.449-10.731-14.748-16.689-21.696c-0.897-1.058-1.79-2.085-2.693-3.099c-2.27-2.565-2.038-6.479,0.524-8.751
						c2.563-2.281,6.567-2.095,8.751,0.519c0.959,1.086,1.911,2.174,2.851,3.284c6.222,7.261,12.108,14.912,17.472,22.725
						c1.938,2.823,1.224,6.679-1.599,8.617C2594.418,663.092,2591.08,662.713,2589.01,660.61z"/>
				</g>
				<g style="opacity:0.3;">
					<path style="fill:#BDD0FB;" d="M2189.587,994.604c-2.374-2.411-2.373-6.294,0.014-8.708c2.405-2.432,6.333-2.455,8.764-0.045
						c7.325,7.25,15.154,14.114,23.271,20.401c2.67,2.108,3.205,5.989,1.105,8.697c-2.099,2.708-5.991,3.198-8.698,1.105
						c-8.509-6.598-16.72-13.79-24.398-21.39C2189.627,994.646,2189.606,994.624,2189.587,994.604z M2168.43,970.985
						c-0.157-0.16-0.303-0.326-0.445-0.504c-6.708-8.452-12.969-17.399-18.611-26.59c-1.788-2.92-0.878-6.733,2.04-8.523
						c2.92-1.797,6.739-0.86,8.527,2.035c5.383,8.771,11.358,17.308,17.756,25.376c2.128,2.679,1.678,6.579-1.002,8.705
						C2174.185,973.473,2170.621,973.21,2168.43,970.985z M2239.627,1033.351c-1.928-1.958-2.379-5.039-0.909-7.514
						c1.745-2.938,5.548-3.908,8.492-2.16c8.868,5.263,18.125,10.033,27.527,14.172c3.133,1.396,4.553,5.039,3.17,8.172
						c-1.377,3.131-5.039,4.554-8.172,3.174c-9.854-4.34-19.561-9.342-28.853-14.863
						C2240.411,1034.053,2239.993,1033.722,2239.627,1033.351z M2135.338,916.995c-0.494-0.502-0.911-1.098-1.223-1.777
						c-4.482-9.824-8.4-20.024-11.644-30.316c-1.031-3.265,0.782-6.746,4.048-7.778c3.257-1.023,6.739,0.789,7.773,4.048
						c3.095,9.813,6.832,19.534,11.103,28.903c1.418,3.114,0.046,6.792-3.068,8.211
						C2139.893,919.396,2137.113,918.798,2135.338,916.995z M2297.546,1058.849c-1.539-1.564-2.2-3.899-1.521-6.143
						c0.99-3.281,4.45-5.134,7.726-4.145c9.845,2.977,19.975,5.38,30.116,7.138c3.379,0.585,5.633,3.797,5.046,7.17
						c-0.587,3.373-3.797,5.633-7.17,5.046c-10.63-1.85-21.253-4.366-31.577-7.484
						C2299.136,1060.12,2298.248,1059.563,2297.546,1058.849z M2359.892,1069.71c-1.178-1.197-1.868-2.864-1.776-4.669
						c0.176-3.419,3.09-6.049,6.508-5.873c10.298,0.529,20.718,0.439,30.963-0.267c3.42-0.236,6.379,2.346,6.611,5.757
						c0.236,3.415-2.34,6.372-5.753,6.607c-10.745,0.742-21.667,0.839-32.457,0.284
						C2362.378,1071.467,2360.941,1070.775,2359.892,1069.71z M2423.051,1065.322c-0.828-0.841-1.427-1.924-1.664-3.174
						c-0.65-3.361,1.552-6.612,4.914-7.26c10.123-1.943,20.215-4.532,29.992-7.689c3.252-1.045,6.751,0.739,7.8,3.997
						c1.051,3.259-0.735,6.75-3.996,7.803c-10.251,3.306-20.836,6.023-31.454,8.067
						C2426.527,1067.472,2424.456,1066.749,2423.051,1065.322z"/>
					<path style="fill:#BDD0FB;" d="M2116.22,856.329c-0.839-0.852-1.44-1.955-1.674-3.219c-0.965-5.217-1.778-10.485-2.423-15.661
						c-0.421-3.396,1.99-6.495,5.387-6.918c3.391-0.412,6.488,1.992,6.918,5.387c0.612,4.936,1.39,9.962,2.308,14.941
						c0.623,3.367-1.605,6.6-4.969,7.22C2119.666,858.466,2117.615,857.746,2116.22,856.329z"/>
				</g>
				<g>
					<path style="fill:#BDD0FB;" d="M2176.893,803.824c-0.145,1.33,0.57,2.608,1.781,3.179l34.548,16.298
						c2.159,17.708,7.157,35.199,15.086,51.758l-20.344,32.302c-0.714,1.133-0.63,2.594,0.208,3.638l28.692,35.724
						c0.839,1.044,2.247,1.441,3.507,0.989l35.93-12.897c14.458,11.314,30.458,19.969,47.283,25.898l8.46,37.251
						c0.297,1.305,1.389,2.279,2.72,2.425l45.549,4.972c1.332,0.145,2.608-0.57,3.179-1.781l16.298-34.548
						c17.708-2.159,35.199-7.158,51.758-15.086l32.302,20.345c1.133,0.714,2.594,0.63,3.638-0.208l35.725-28.693
						c1.044-0.839,1.441-2.247,0.989-3.507l-12.896-35.931c11.315-14.458,19.969-30.458,25.898-47.283l37.252-8.461
						c1.305-0.297,2.279-1.389,2.424-2.719l4.972-45.55c0.146-1.331-0.57-2.607-1.781-3.179l-34.549-16.298
						c-2.158-17.708-7.157-35.199-15.086-51.758l20.345-32.302c0.713-1.133,0.63-2.593-0.208-3.638l-28.693-35.724
						c-0.838-1.044-2.246-1.441-3.507-0.989l-35.93,12.897c-14.458-11.315-30.458-19.97-47.284-25.898l-8.46-37.25
						c-0.296-1.306-1.389-2.28-2.72-2.425l-45.549-4.972c-1.331-0.145-2.608,0.57-3.179,1.781l-16.298,34.547
						c-17.708,2.159-35.199,7.158-51.758,15.087l-32.302-20.346c-1.132-0.713-2.594-0.63-3.637,0.21l-35.724,28.691
						c-1.044,0.839-1.441,2.247-0.989,3.507l12.896,35.931c-11.314,14.458-19.969,30.458-25.898,47.283l-37.251,8.461
						c-1.306,0.297-2.279,1.389-2.425,2.72L2176.893,803.824z"/>
					
						<linearGradient id="SVGID_00000008850444742600117910000002044416008881396115_" gradientUnits="userSpaceOnUse" x1="2332.479" y1="802.8955" x2="2426.2366" y2="802.8955">
						<stop  offset="0" style="stop-color:#DAE3FE"/>
						<stop  offset="1" style="stop-color:#E9EFFD"/>
					</linearGradient>
					<path style="fill:url(#SVGID_00000008850444742600117910000002044416008881396115_);" d="M2345.889,835.709
						c-7.015-7.125-11.545-16.273-12.952-26.355c-1.729-12.403,1.477-24.737,9.026-34.73c15.573-20.625,45.03-24.734,65.665-9.158
						c20.629,15.638,24.736,45.045,9.156,65.672c-7.547,9.996-18.535,16.452-30.936,18.179c-12.405,1.732-24.741-1.472-34.734-9.025
						C2349.248,838.879,2347.501,837.346,2345.889,835.709z M2403.963,778.697c-1.17-1.189-2.439-2.304-3.807-3.34
						c-15.178-11.456-36.844-8.434-48.305,6.74c-5.549,7.349-7.912,16.424-6.636,25.544c1.273,9.127,6.028,17.2,13.372,22.762l0,0
						c7.351,5.551,16.426,7.909,25.546,6.638c9.127-1.273,17.208-6.023,22.761-13.376
						C2417.319,809.862,2415.759,790.677,2403.963,778.697z"/>
					
						<linearGradient id="SVGID_00000172438479368541933390000009301874709515641760_" gradientUnits="userSpaceOnUse" x1="2270.4612" y1="802.8739" x2="2497.1194" y2="802.8739">
						<stop  offset="0" style="stop-color:#DAE3FE"/>
						<stop  offset="1" style="stop-color:#E9EFFD"/>
					</linearGradient>
					<path style="fill:url(#SVGID_00000172438479368541933390000009301874709515641760_);" d="M2297.204,884.891
						c-2.752-2.795-5.382-5.752-7.892-8.87c-4.979-6.196-9.333-12.904-12.948-19.958c-0.16-0.318-0.32-0.636-0.48-0.954
						c-1.235-2.462-0.675-5.353,1.186-7.19c0.453-0.446,0.984-0.829,1.581-1.128c3.06-1.534,6.774-0.281,8.314,2.768
						c3.313,6.618,7.356,12.906,12.01,18.695l0.002,0.002c0.254,0.318,0.515,0.635,0.772,0.947
						c11.141,13.601,25.249,23.911,41.115,30.363c8.613,3.501,17.75,5.863,27.219,6.983c0.077,0.009,0.154,0.018,0.231,0.028
						c0.238,0.025,0.471,0.055,0.706,0.078c27.712,3.023,54.945-4.923,76.678-22.38c2.815-2.257,5.489-4.64,8.025-7.137
						c17.061-16.802,27.735-38.779,30.372-62.907c3.023-27.713-4.927-54.941-22.382-76.673
						c-17.452-21.712-42.332-35.369-70.042-38.399c-27.712-3.023-54.945,4.923-76.678,22.38c-2.767,2.219-5.409,4.574-7.919,7.046
						c-10.885,10.721-19.3,23.699-24.599,38.039c-0.328,0.884-0.832,1.648-1.464,2.266c-1.656,1.631-4.172,2.26-6.498,1.398
						c-3.208-1.196-4.854-4.748-3.664-7.966c5.931-16.045,15.347-30.569,27.519-42.562c2.812-2.769,5.767-5.402,8.86-7.886
						c24.32-19.532,54.785-28.422,85.792-25.037c31.001,3.387,58.837,18.614,78.359,42.956
						c19.532,24.316,28.424,54.779,25.035,85.786c-2.943,26.992-14.888,51.578-33.976,70.376c-2.834,2.79-5.829,5.459-8.973,7.985
						C2406.383,931.748,2338.689,927.027,2297.204,884.891z"/>
				</g>
			</g>
		</g>
		<g>
			
				<linearGradient id="SVGID_00000157987179652247046530000017918721975068534672_" gradientUnits="userSpaceOnUse" x1="1871.7585" y1="1653.3373" x2="1408.3514" y2="595.1079">
				<stop  offset="0" style="stop-color:#4F52FF"/>
				<stop  offset="1" style="stop-color:#4042E2"/>
			</linearGradient>
			<path style="fill:url(#SVGID_00000157987179652247046530000017918721975068534672_);" d="M3051.96,1808.442
				c-25.474,580.262-553.87,1028.368-1180.206,1000.872S758.323,2289.132,783.796,1708.869
				c25.474-580.262,553.87-1028.368,1180.206-1000.872C2590.338,735.494,3077.434,1228.179,3051.96,1808.442z"/>
			<ellipse style="opacity:0.33;fill:#91B3FA;" cx="1856.44" cy="1682.779" rx="890.76" ry="841.484"/>
			<g style="opacity:0.68;">
				<path style="fill:#FFFFFF;" d="M2207.877,1763.735c-0.273,185.485-12.993,371.349-45.68,554.208
					c-8.276,45.677-17.869,91.135-29.3,136.162c-11.466,45.009-24.703,89.627-40.911,133.251
					c-16.343,43.51-35.312,86.395-61.034,125.589c-12.962,19.454-27.664,38.094-45.808,53.428
					c-9.069,7.618-19.029,14.374-29.984,19.324c-10.933,4.918-22.881,8.031-35.008,8.247c-12.111,0.354-24.24-2.016-35.388-6.506
					c-11.192-4.447-21.394-10.898-30.682-18.265c-18.577-14.857-33.603-33.292-46.797-52.593
					c-26.179-38.915-45.405-81.713-61.919-125.155c-16.412-43.549-29.78-88.132-41.346-133.114
					c-11.545-44.996-21.235-90.435-29.579-136.097c-16.652-91.344-28.01-183.567-35.674-276.043
					c-7.609-92.491-11.423-185.278-11.892-278.079c-0.228-46.394,1.038-92.781,2.687-139.139
					c1.737-46.357,4.29-92.685,7.703-138.949c6.862-92.517,17.111-184.829,32.348-276.383
					c7.645-45.766,16.559-91.338,27.282-136.508c10.75-45.154,23.243-89.949,38.739-133.774
					c7.788-21.892,16.304-43.55,26.016-64.699c9.697-21.144,20.549-41.827,33.303-61.382c12.783-19.469,27.478-38.052,45.777-52.927
					c9.148-7.373,19.227-13.788,30.269-18.134c10.998-4.402,22.931-6.631,34.801-6.18c11.877,0.338,23.586,3.299,34.389,8.057
					c10.818,4.781,20.759,11.282,29.885,18.652c18.253,14.833,33.361,32.969,46.764,52.013
					c26.646,38.354,46.734,80.652,64.135,123.689c17.273,43.155,31.535,87.429,43.958,132.159
					c12.379,44.751,22.861,90.002,31.932,135.518C2192.76,1392.331,2207.342,1578.217,2207.877,1763.735z M2194.148,1763.735
					c0.17-92.423-3.343-184.869-11.024-276.971c-7.572-92.098-19.044-183.932-36.135-274.749
					c-8.534-45.402-18.474-90.547-30.301-135.192c-11.869-44.622-25.568-88.79-42.247-131.814
					c-16.799-42.903-36.279-85.053-62.13-123.134c-12.994-18.907-27.652-36.863-45.241-51.472
					c-8.791-7.26-18.336-13.641-28.664-18.34c-10.318-4.642-21.431-7.685-32.733-7.982c-11.295-0.358-22.575,1.914-33.023,6.214
					c-10.485,4.257-20.111,10.52-28.886,17.752c-17.557,14.586-31.781,32.933-44.145,52.229
					c-12.34,19.378-22.846,39.931-32.215,60.967c-9.385,21.04-17.597,42.612-25.091,64.426
					c-14.907,43.671-26.844,88.347-37.048,133.386c-10.177,45.057-18.556,90.522-25.671,136.178
					c-14.177,91.335-23.384,183.418-29.213,275.671c-5.888,92.265-7.921,184.739-7.754,277.172
					c-0.245,92.418,2.843,184.862,9.712,277.03c6.923,92.152,17.528,184.073,33.398,275.091
					c7.953,45.499,17.243,90.766,28.372,135.566c11.147,44.784,24.083,89.148,40.005,132.399
					c16.008,43.135,34.728,85.574,60.026,123.797c12.732,18.952,27.219,36.927,44.776,51.178
					c8.773,7.07,18.322,13.189,28.643,17.377c10.29,4.2,21.331,6.534,32.393,6.161c11.059-0.285,21.955-3.205,32.071-7.846
					c10.131-4.673,19.476-11.098,28.058-18.425c17.177-14.742,31.355-32.943,43.863-52.059
					c24.856-38.526,43.306-81.059,59.134-124.266c15.707-43.33,28.5-87.731,39.534-132.544
					c11.003-44.831,20.182-90.119,28.056-135.63c15.763-91.035,26.237-182.967,33.2-275.118
					C2190.927,1948.63,2194.185,1856.176,2194.148,1763.735z"/>
				<path style="fill:#FFFFFF;" d="M2675.8,1763.735c-0.641,119.448-15.993,238.948-47.97,354.137
					c-32.534,114.924-81.578,225.485-148.162,324.746c-33.296,49.576-71.017,96.242-113.165,138.58
					c-42.13,42.326-88.725,80.311-139.303,112.144c-50.624,31.71-105.302,57.095-162.538,74.317
					c-57.203,17.263-116.918,26.269-176.689,26.328c-59.769-0.005-119.502-8.957-176.735-26.172
					c-57.266-17.175-111.989-42.518-162.665-74.197c-50.63-31.8-97.293-69.751-139.492-112.06
					c-42.219-42.32-80.014-88.976-113.385-138.552c-66.718-99.274-115.865-209.883-148.551-324.864
					c-16.089-57.596-28.045-116.329-35.966-175.586c-7.879-59.267-11.837-119.033-12.109-178.82
					c0.309-59.789,4.305-119.55,12.22-178.807c7.959-59.247,19.96-117.963,36.087-175.536
					c32.768-114.934,81.99-225.468,148.752-324.64c33.385-49.531,71.186-96.135,113.399-138.399
					c42.199-42.244,88.829-80.16,139.45-111.86c50.661-31.597,105.37-56.753,162.537-73.921
					c57.13-17.24,116.767-26.231,176.458-26.29c59.691,0.108,119.312,9.15,176.415,26.434c57.138,17.214,111.8,42.42,162.408,74.051
					c50.566,31.736,97.13,69.682,139.259,111.945c42.143,42.283,79.87,88.896,113.179,138.428
					c66.626,99.158,115.749,209.643,148.362,324.522C2659.644,1524.807,2675.077,1644.287,2675.8,1763.735z M2660.061,1763.735
					c-0.173-118.092-14.883-236.31-46.042-350.306c-31.332-113.819-78.508-223.702-143.455-322.521
					c-32.456-49.358-69.318-95.882-110.605-138.173c-41.303-42.225-86.925-80.427-136.819-112.179
					c-49.955-31.574-103.901-56.989-160.466-74.179c-56.537-17.203-115.565-26.245-174.701-26.442
					c-59.136,0.247-118.149,9.34-174.657,26.586c-56.536,17.236-110.435,42.701-160.337,74.309
					c-49.84,31.788-95.394,70.022-136.628,112.265c-41.216,42.31-78.005,88.843-110.386,138.202
					c-64.812,98.806-111.887,208.64-143.064,322.403c-15.532,56.947-26.778,115.014-34.398,173.512
					c-7.638,58.506-11.407,117.506-11.539,176.524c0.169,59.017,3.975,118.012,11.65,176.508
					c7.658,58.489,18.949,116.539,34.52,173.462c31.258,113.718,78.41,223.477,143.266,322.179
					c32.393,49.313,69.187,95.795,110.4,138.048c41.233,42.178,86.754,80.377,136.585,112.065
					c49.887,31.527,103.773,56.803,160.209,74.032c56.406,17.27,115.322,26.403,174.379,26.703
					c59.058-0.245,117.99-9.324,174.427-26.546c56.467-17.183,110.397-42.418,160.336-73.913
					c49.883-31.656,95.473-69.82,136.776-111.981c41.282-42.234,78.15-88.707,110.619-138.019
					c64.99-98.716,112.246-208.524,143.655-322.297C2645.016,2000.024,2659.808,1881.826,2660.061,1763.735z"/>
				<path style="fill:#FFFFFF;" d="M968.645,1356.061l236.594-1.912l236.594-1.083l473.188-0.873l473.188,0.962l236.594,1.183
					l236.594,2.063c0.384,0.004,0.692,0.317,0.688,0.701c-0.003,0.379-0.311,0.685-0.688,0.688l-236.594,2.063l-236.594,1.183
					l-473.188,0.962l-473.188-0.874l-236.594-1.083l-236.594-1.911c-0.571-0.005-1.031-0.472-1.026-1.043
					C967.623,1356.522,968.082,1356.066,968.645,1356.061z"/>
				<path style="fill:#FFFFFF;" d="M1243.122,959.786c55.991-0.887,111.983-1.267,167.974-1.911l167.975-1.083
					c55.992-0.461,111.983-0.412,167.976-0.554l167.974-0.319l335.949,0.962l167.975,1.183
					c55.992,0.702,111.983,1.113,167.976,2.064c0.383,0.007,0.689,0.323,0.683,0.707c-0.006,0.375-0.311,0.676-0.683,0.683
					c-55.992,0.951-111.983,1.361-167.976,2.064l-167.975,1.183l-335.949,0.962l-167.974-0.319
					c-55.992-0.143-111.983-0.093-167.976-0.554l-167.975-1.083c-55.991-0.643-111.983-1.024-167.974-1.911
					c-0.571-0.009-1.027-0.48-1.019-1.051C1242.113,960.245,1242.566,959.796,1243.122,959.786z"/>
				<path style="fill:#FFFFFF;" d="M886.426,1752.336l257.149-1.905l257.149-1.09l514.297-0.874l514.297,0.962l257.149,1.184
					l257.148,2.063c0.384,0.003,0.692,0.317,0.69,0.7c-0.003,0.38-0.311,0.686-0.69,0.69l-257.148,2.062l-257.149,1.184
					l-514.297,0.962l-514.297-0.874l-257.149-1.09l-257.149-1.905c-0.571-0.004-1.031-0.471-1.027-1.042
					C885.403,1752.797,885.862,1752.34,886.426,1752.336z"/>
				<path style="fill:#FFFFFF;" d="M968.645,2148.61l236.594-1.911l236.594-1.083l473.188-0.874l473.188,0.962l236.594,1.183
					l236.594,2.063c0.384,0.004,0.692,0.317,0.688,0.701c-0.003,0.38-0.311,0.685-0.688,0.689l-236.594,2.063l-236.594,1.183
					l-473.188,0.962l-473.188-0.874l-236.594-1.083l-236.594-1.912c-0.571-0.004-1.031-0.471-1.026-1.043
					C967.623,2149.071,968.082,2148.615,968.645,2148.61z"/>
				<path style="fill:#FFFFFF;" d="M2620.774,2549.548H1276.978c-2.005,0-3.627-1.624-3.627-3.627c0-2.003,1.622-3.627,3.627-3.627
					h1343.796c2.005,0,3.627,1.624,3.627,3.627C2624.401,2547.924,2622.779,2549.548,2620.774,2549.548z"/>
			</g>
		</g>
		<g>
			
				<linearGradient id="SVGID_00000056386339851062650710000011316164360398348691_" gradientUnits="userSpaceOnUse" x1="68.5669" y1="2885.3606" x2="-40.5516" y2="3339.4353" gradientTransform="matrix(-1 0 0 1 956.3438 0)">
				<stop  offset="0" style="stop-color:#09005D"/>
				<stop  offset="1" style="stop-color:#1A0F91"/>
			</linearGradient>
			<path style="fill-rule:evenodd;clip-rule:evenodd;fill:url(#SVGID_00000056386339851062650710000011316164360398348691_);" d="
				M930.859,3183.07l-6.53,7.549l4.481,16.389c1.175,4.297,4.71,7.532,9.092,8.335c14.586,2.671,47.664,7.502,64.683,0.177
				c0,0,5.293-35.467-53.34-24.902L930.859,3183.07z"/>
			
				<linearGradient id="SVGID_00000073682038115987247040000014491981896741146028_" gradientUnits="userSpaceOnUse" x1="128.9506" y1="3001.3916" x2="102.551" y2="3314.668" gradientTransform="matrix(-1 0 0 1 956.3438 0)">
				<stop  offset="0" style="stop-color:#09005D"/>
				<stop  offset="1" style="stop-color:#1A0F91"/>
			</linearGradient>
			<path style="fill-rule:evenodd;clip-rule:evenodd;fill:url(#SVGID_00000073682038115987247040000014491981896741146028_);" d="
				M828.598,3201.906l-3.477,8.537l1.41,30.737c0.198,4.32,3.683,7.945,8.38,8.67c6.412,0.989,15.737,1.99,24.512,1.312
				c6.869-0.531,11.172-6.983,8.484-12.743l-10.347-22.17c-1.548-3.317-4.376-5.863-7.836-7.057L828.598,3201.906z"/>
			
				<linearGradient id="SVGID_00000182523371377691764400000012728849878246071468_" gradientUnits="userSpaceOnUse" x1="307.5329" y1="8089.2212" x2="30.6297" y2="8799.0781" gradientTransform="matrix(1 0 0 1 -1432.9921 0)">
				<stop  offset="0" style="stop-color:#A22B25"/>
				<stop  offset="1" style="stop-color:#C0423C"/>
			</linearGradient>
			<path style="fill-rule:evenodd;clip-rule:evenodd;fill:url(#SVGID_00000182523371377691764400000012728849878246071468_);" d="
				M800.707,2964.76c0,0,17.064,190.233,28.332,248.439c0,0,8.432,6.143,21.045-1.778l15.314-253.868L800.707,2964.76z"/>
			
				<linearGradient id="SVGID_00000072253103666190615810000011123741422832223628_" gradientUnits="userSpaceOnUse" x1="383.0713" y1="8118.6851" x2="106.168" y2="8828.543" gradientTransform="matrix(1 0 0 1 -1432.9921 0)">
				<stop  offset="0" style="stop-color:#A22B25"/>
				<stop  offset="1" style="stop-color:#C0423C"/>
			</linearGradient>
			<path style="fill-rule:evenodd;clip-rule:evenodd;fill:url(#SVGID_00000072253103666190615810000011123741422832223628_);" d="
				M876.534,2976.182l46.747,213.038c0,0,12.718,13.187,29.246,0l-8.057-223.956L876.534,2976.182z"/>
			
				<linearGradient id="SVGID_00000063608274438343387000000010513161792299707016_" gradientUnits="userSpaceOnUse" x1="949.7914" y1="2516.5837" x2="573.6776" y2="2703.5149">
				<stop  offset="0" style="stop-color:#09005D"/>
				<stop  offset="1" style="stop-color:#1A0F91"/>
			</linearGradient>
			<path style="fill-rule:evenodd;clip-rule:evenodd;fill:url(#SVGID_00000063608274438343387000000010513161792299707016_);" d="
				M578.07,2612.925c16.025-43.562,52.266-72.76,90.632-77.603c11.54-1.457,22.303-6.767,30.852-14.653
				c16.12-14.867,39.155-20.541,60.399-12.725c0.057,0.021,0.114,0.042,0.171,0.063c9.697,3.603,20.558,2.597,28.839-3.603
				c24.469-18.319,85.088-22.505,113.6-12.016c47.421,17.446,63.184,69.598,43.558,122.945
				c-19.625,53.347-96.808,85.533-144.23,68.087c-6.611-2.432-12.737-5.642-18.333-9.51c-7.451-5.15-17.551-2.085-20.642,6.429
				c-0.063,0.172-0.126,0.344-0.189,0.517c-21.745,59.109-80.71,91.819-131.701,73.06
				C580.036,2735.159,556.325,2672.034,578.07,2612.925z"/>
			
				<linearGradient id="SVGID_00000067920773946307768360000008937819587011772064_" gradientUnits="userSpaceOnUse" x1="1383.6372" y1="3394.6357" x2="1359.455" y2="3184.8398" gradientTransform="matrix(1.054 -0.0499 0.0425 0.8975 -717.6651 20.0003)">
				<stop  offset="0" style="stop-color:#09005D"/>
				<stop  offset="1" style="stop-color:#1A0F91"/>
			</linearGradient>
			<path style="fill-rule:evenodd;clip-rule:evenodd;fill:url(#SVGID_00000067920773946307768360000008937819587011772064_);" d="
				M914.896,2820.712c0,0,48.468,91.661,63.731,152.444c0.785,3.126-1.557,6.227-5.237,6.951
				c-6.961,1.369-19.118,4.501-35.172,11.525c-26.031,11.39-49.079,11.866-70.336,9.612c-16.685-1.77-57.349,0.171-74.069,1.087
				c-3.983,0.219-7.275-2.508-7.128-5.906c1.009-23.38,5.781-106.521,24.29-165.078L914.896,2820.712z"/>
			
				<linearGradient id="SVGID_00000168806646110241487450000010654901680256785567_" gradientUnits="userSpaceOnUse" x1="1291.3899" y1="2561.553" x2="1137.116" y2="2631.3704">
				<stop  offset="0" style="stop-color:#FF928E"/>
				<stop  offset="1" style="stop-color:#FE7062"/>
			</linearGradient>
			<path style="fill:url(#SVGID_00000168806646110241487450000010654901680256785567_);" d="M1042.937,2619.636
				c-42.869,139.572-99.004,60.78-145.638,62.765c0.912,1.318,1.389,3.008,1.156,5.052c-0.235,2.054-0.479,4.108-0.728,6.162
				c1.47,1.844,2.319,4.299,1.935,7.199c-2.005,15.165-3.4,30.412-5.416,45.565c222.86,49.291,159.934-136.033,159.934-136.033
				L1042.937,2619.636z"/>
			
				<linearGradient id="SVGID_00000145040963225224033460000017691075854638162875_" gradientUnits="userSpaceOnUse" x1="1060.2792" y1="2549.7854" x2="980.3272" y2="2664.6462">
				<stop  offset="0" style="stop-color:#FF928E"/>
				<stop  offset="1" style="stop-color:#FE7062"/>
			</linearGradient>
			<path style="fill:url(#SVGID_00000145040963225224033460000017691075854638162875_);" d="M866.824,2672.638
				c15.987-0.518,29.325,0.292,41.998,2.592c21.95,3.984,38.554,22.094,40.391,44.326l14.282,172.803
				c0,0-49.266,80.939-186.646,40.563c-9.969-2.93-15.702-13.377-12.935-23.392L805.226,2716
				C811.207,2694.352,844.375,2673.366,866.824,2672.638z"/>
			
				<linearGradient id="SVGID_00000004533238360697533180000013800732386959685516_" gradientUnits="userSpaceOnUse" x1="829.5319" y1="2639.3442" x2="862.6198" y2="2510.0005" gradientTransform="matrix(-0.9817 -0.1907 -0.1907 0.9817 2207.6726 336.1314)">
				<stop  offset="0" style="stop-color:#A22B25"/>
				<stop  offset="1" style="stop-color:#C0423C"/>
			</linearGradient>
			<path style="fill-rule:evenodd;clip-rule:evenodd;fill:url(#SVGID_00000004533238360697533180000013800732386959685516_);" d="
				M869.126,2619.636l-16.472,54.707c-1.31,4.351,0.813,8.99,4.966,10.833c9.501,4.219,26.959,10.407,43.13,7.805
				c4.083-0.657,7.236-3.943,7.632-8.06l5.61-58.394L869.126,2619.636z"/>
			
				<linearGradient id="SVGID_00000145025058812599783500000009669438317904135316_" gradientUnits="userSpaceOnUse" x1="-313.4915" y1="2670.9207" x2="47.4612" y2="2427.3862" gradientTransform="matrix(-0.9157 0.4026 0.4157 0.9649 -1249.243 -11.2313)">
				<stop  offset="0" style="stop-color:#A22B25"/>
				<stop  offset="1" style="stop-color:#C0423C"/>
			</linearGradient>
			<path style="fill-rule:evenodd;clip-rule:evenodd;fill:url(#SVGID_00000145025058812599783500000009669438317904135316_);" d="
				M827.751,2605.482c12.682,36.427,47.28,66.3,89.17,49.931c28.983-11.325,32.501-41.773,19.82-78.2
				c-12.682-36.427-44.797-59.683-74.184-49.452C833.171,2537.991,815.069,2569.055,827.751,2605.482z"/>
			
				<linearGradient id="SVGID_00000174565353918872731860000010856415163425736855_" gradientUnits="userSpaceOnUse" x1="-124.8243" y1="2320.5576" x2="236.1164" y2="2077.0313" gradientTransform="matrix(-0.9656 0.2601 0.2601 0.9656 -1178.8046 -35.5912)">
				<stop  offset="0" style="stop-color:#A22B25"/>
				<stop  offset="1" style="stop-color:#C0423C"/>
			</linearGradient>
			<path style="fill-rule:evenodd;clip-rule:evenodd;fill:url(#SVGID_00000174565353918872731860000010856415163425736855_);" d="
				M840.429,2612.308c0,0-10.939-19.804-18.15-8.7c-7.212,11.104,18.458,28.911,25.43,27.375
				C854.68,2629.447,840.429,2612.308,840.429,2612.308z"/>
			
				<linearGradient id="SVGID_00000151545600693287720710000011774304130510743209_" gradientUnits="userSpaceOnUse" x1="-1096.6735" y1="-4009.6267" x2="-1021.5991" y2="-4009.6267" gradientTransform="matrix(0.9586 0.2849 0.2849 -0.9586 2990.8728 -589.3559)">
				<stop  offset="0" style="stop-color:#A22B25"/>
				<stop  offset="1" style="stop-color:#C0423C"/>
			</linearGradient>
			<path style="fill:url(#SVGID_00000151545600693287720710000011774304130510743209_);" d="M802.34,2924.832
				c0,0,9.81,45.627,28.736,56.427c18.927,10.8,29.514,9.018,29.514,9.018s5.73-7.608-1.897-15.051
				c-7.627-7.443-29.796-52.859-41.52-58.931C805.451,2910.224,802.34,2924.832,802.34,2924.832z"/>
			
				<linearGradient id="SVGID_00000004521093826736362320000018298284704082895760_" gradientUnits="userSpaceOnUse" x1="-697.7757" y1="2706.5371" x2="-418.1537" y2="2914.9443" gradientTransform="matrix(-0.981 0.1941 0.1941 0.981 -215.9366 -106.8514)">
				<stop  offset="0" style="stop-color:#09005D"/>
				<stop  offset="1" style="stop-color:#1A0F91"/>
			</linearGradient>
			<path style="fill-rule:evenodd;clip-rule:evenodd;fill:url(#SVGID_00000004521093826736362320000018298284704082895760_);" d="
				M820.465,2598.887c0,0,40.816,31.382,45.461-49.036c0,0,21.809,20.051,26.457-1.783c0,0,37.626,6.095,38.993-9.527
				c1.368-15.622-57.548-47.259-94.364-11.01C800.196,2563.78,820.465,2598.887,820.465,2598.887z"/>
			<g>
				<rect x="1024.792" y="2238.962" style="fill:#7D97F4;" width="21.063" height="572.927"/>
				<path style="fill:#BDD0FB;" d="M789.488,1878.089l36.902,365.658c2.579,25.554,24.895,44.501,50.53,42.898l316.375-19.773
					c24.066-1.504,43.242-20.701,44.719-44.768l23.471-382.237c1.801-29.328-23.042-53.321-52.291-50.498l-376.747,36.353
					C806.093,1828.264,786.83,1851.747,789.488,1878.089z"/>
			</g>
			
				<linearGradient id="SVGID_00000181083386859524826010000000213134504055501963_" gradientUnits="userSpaceOnUse" x1="3853.2109" y1="2592.6821" x2="3904.7004" y2="2592.6821" gradientTransform="matrix(-1 0 0 1 4907.4087 0)">
				<stop  offset="0" style="stop-color:#A22B25"/>
				<stop  offset="1" style="stop-color:#C0423C"/>
			</linearGradient>
			<path style="fill:url(#SVGID_00000181083386859524826010000000213134504055501963_);" d="M1054.178,2610.346
				c0,0-15.362-40.756-29.915-45.696c-14.553-4.94-21.165-0.239-21.165-0.239s-2.281,8.884,4.187,13.824
				c6.468,4.94,29.915,41.991,38.808,44.461C1054.987,2625.166,1054.178,2610.346,1054.178,2610.346z"/>
			
				<linearGradient id="SVGID_00000057106074955707586980000007472694660557609100_" gradientUnits="userSpaceOnUse" x1="168.2045" y1="2745.5493" x2="-148.5919" y2="3352.7429" gradientTransform="matrix(-1 0 0 1 956.3438 0)">
				<stop  offset="0" style="stop-color:#FF928E"/>
				<stop  offset="1" style="stop-color:#FE7062"/>
			</linearGradient>
			<path style="fill:url(#SVGID_00000057106074955707586980000007472694660557609100_);" d="M831.876,2931.591
				c-18.641-88.618,1.643-151.05,23.831-192.115c3.553-19.746-0.383-42.776-25.272-42.511c-15.756,0.167-29.95,9.877-36.488,24.213
				c-62.593,137.243,14.649,215.666,14.649,215.666L831.876,2931.591z"/>
			<g>
				
					<linearGradient id="SVGID_00000058587584095790043040000008294966416363346584_" gradientUnits="userSpaceOnUse" x1="1151.6638" y1="1967.0356" x2="1008.9099" y2="2186.6567">
					<stop  offset="0" style="stop-color:#4F52FF"/>
					<stop  offset="1" style="stop-color:#4042E2"/>
				</linearGradient>
				<path style="fill:url(#SVGID_00000058587584095790043040000008294966416363346584_);" d="M1085.907,2140.59
					c-0.193-2.396-2.641-4.47-6.785-6.133c4.504-2.483,6.995-5.145,6.785-7.756c-0.637-7.9-25.655-12.329-55.879-9.892
					c-30.224,2.437-54.209,10.816-53.572,18.716c0.193,2.396,2.641,4.47,6.785,6.133c-4.504,2.484-6.996,5.146-6.785,7.756
					c0.193,2.396,2.641,4.47,6.785,6.133c-4.504,2.483-6.996,5.146-6.785,7.756c0.193,2.396,2.641,4.47,6.785,6.133
					c-4.504,2.484-6.996,5.146-6.785,7.756c0.282,3.494,5.338,6.307,13.499,8.149c-0.106,2.582-0.047,5.412,0.207,8.536
					c1.182,14.557,17.556,25.97,39.213,25.97c21.657,0,40.401-15.562,40.614-30.165c0.052-3.579-0.1-6.729-0.424-9.529
					c10.362-3.46,16.673-7.687,16.342-11.787c-0.193-2.396-2.641-4.47-6.785-6.133c4.504-2.484,6.995-5.146,6.785-7.756
					c-0.193-2.396-2.641-4.47-6.785-6.133C1083.625,2145.863,1086.117,2143.201,1085.907,2140.59z"/>
				<g>
					<path style="fill:#91B3FA;" d="M1016.043,2188.486c-8.976,0-17.189-0.66-23.975-1.96c-0.394-0.075-0.652-0.456-0.577-0.849
						c0.075-0.393,0.454-0.652,0.849-0.576c10.619,2.033,24.801,2.481,39.936,1.261c12.384-0.999,23.965-2.996,33.492-5.776
						c0.386-0.112,0.788,0.108,0.9,0.493c0.112,0.385-0.108,0.788-0.493,0.9c-9.62,2.808-21.302,4.823-33.782,5.83
						C1026.771,2188.261,1021.278,2188.486,1016.043,2188.486z"/>
					<path style="fill:#91B3FA;" d="M1016.194,2174.584c-11.662,0-22.085-1.097-29.436-3.19c-0.386-0.11-0.609-0.511-0.5-0.897
						c0.11-0.386,0.51-0.609,0.897-0.5c10.476,2.983,27.343,3.908,45.121,2.475c17.586-1.418,33.986-4.987,43.872-9.546
						c0.364-0.167,0.795-0.009,0.964,0.355c0.167,0.364,0.009,0.795-0.355,0.963c-10.033,4.627-26.618,8.244-44.364,9.675
						C1026.855,2174.365,1021.4,2174.584,1016.194,2174.584z"/>
					<path style="fill:#91B3FA;" d="M1016.044,2160.706c-12.592,0-23.612-1.288-31.028-3.734c-0.381-0.125-0.588-0.536-0.462-0.917
						c0.125-0.381,0.534-0.588,0.917-0.462c10.321,3.403,27.819,4.521,46.806,2.99c17.584-1.417,33.985-4.986,43.872-9.546
						c0.364-0.167,0.795-0.008,0.964,0.355c0.167,0.364,0.009,0.796-0.355,0.963c-10.034,4.627-26.619,8.244-44.364,9.675
						C1026.77,2160.484,1021.271,2160.706,1016.044,2160.706z"/>
					<path style="fill:#91B3FA;" d="M1016.141,2146.81c-9.989,0-19.074-0.808-26.136-2.377c-0.391-0.087-0.638-0.475-0.551-0.866
						c0.087-0.392,0.476-0.639,0.866-0.551c10.621,2.36,25.914,2.971,41.957,1.678c17.428-1.405,33.745-4.935,43.648-9.443
						c0.365-0.167,0.795-0.005,0.961,0.36s0.005,0.795-0.36,0.962c-10.048,4.574-26.546,8.151-44.133,9.569
						C1026.836,2146.589,1021.365,2146.81,1016.141,2146.81z"/>
				</g>
				
					<linearGradient id="SVGID_00000003802234171066288580000000134915843051556500_" gradientUnits="userSpaceOnUse" x1="1119.7074" y1="1506.4272" x2="1056.6467" y2="1789.0753">
					<stop  offset="0" style="stop-color:#FF928E"/>
					<stop  offset="1" style="stop-color:#FE7062"/>
				</linearGradient>
				<path style="fill:url(#SVGID_00000003802234171066288580000000134915843051556500_);" d="M956.17,2070.481
					c-3.671-13.002-9.906-25.152-18.303-35.736c-17.993-22.676-47.346-68.793-50.959-131.735
					c-5.255-91.552,75.94-137.387,150.033-131.165c74.092,6.223,147.203,61.39,139.199,146.56
					c-4.925,52.406-34.257,92.156-56.096,114.985c-13.868,14.496-23.76,32.251-29.115,51.585
					c-6.554,23.664-22.152,53.153-59.224,54.951C983.733,2142.252,963.81,2097.537,956.17,2070.481z"/>
				<path style="opacity:0.66;fill:#FFFFFF;" d="M1120.607,2013.008c-0.963,0-1.934-0.298-2.766-0.915
					c-2.059-1.529-2.49-4.438-0.962-6.499c4.385-5.907,8.402-12.01,11.942-18.138c1.282-2.221,4.122-2.982,6.344-1.699
					c2.223,1.282,2.983,4.123,1.7,6.344c-3.717,6.437-7.93,12.838-12.525,19.03
					C1123.429,2012.359,1122.027,2013.008,1120.607,2013.008z"/>
				<path style="opacity:0.66;fill:#FFFFFF;" d="M1141.936,1976.407c-0.617,0-1.245-0.124-1.848-0.385
					c-2.353-1.022-3.432-3.757-2.41-6.111c27.155-62.54,3.777-114.944,3.537-115.468c-1.069-2.332-0.045-5.088,2.288-6.158
					c2.337-1.066,5.091-0.044,6.158,2.288c1.046,2.285,25.329,56.733-3.461,123.038
					C1145.439,1975.361,1143.73,1976.407,1141.936,1976.407z"/>
				<polygon style="fill:#FFFFFF;" points="1060.701,1844.633 976.73,1948.171 1013.501,1945.882 987.833,2021.666 
					1071.603,1917.609 1038.411,1919.561 				"/>
			</g>
		</g>
		<g>
			<path style="fill:#FFFFFF;" d="M2042.119,1005.852c-163.421-106.404-401.765,10.618-506.989,156.956
				c-28.268,39.314-45.88,79.32-57.081,114.844c-44.149,64.292-70.007,122.096-72.267,127.231
				c-3.573,8.111,0.106,17.58,8.215,21.153c0.398,0.177,0.801,0.334,1.205,0.475c7.821,2.727,16.553-0.974,19.953-8.685
				c1.15-2.603,116.712-260.715,276.169-288.056c159.807-27.394,323.366,129.713,324.997,131.299
				c0,0-288.926-252.214-463.625,11.076c17.445-5.851,36.058-9.694,55.82-10.376c112.753-3.898,163.518,95.927,295.217,125.311
				c56.955,12.708,141.3,14.976,255.755-37.073C2191.747,1208.609,2143.778,1072.041,2042.119,1005.852z"/>
			<path style="fill:#FFFFFF;" d="M2333.97,2118.14c170.886-93.947,180.067-359.31,100.629-521.101
				c-21.341-43.465-48.317-77.859-74.364-104.487c-35.881-69.247-74.665-119.304-78.128-123.719
				c-5.468-6.976-15.553-8.196-22.527-2.729c-0.344,0.268-0.672,0.549-0.987,0.839c-6.092,5.611-6.946,15.056-1.749,21.691
				c1.754,2.242,174.887,225.852,123.814,379.362c-51.191,153.845-266.855,224.007-269.023,224.698
				c0,0,358.647-135.877,208.829-414.078c-3.065,18.143-8.453,36.369-17.168,54.117c-49.726,101.271-161.693,98.973-249.702,201.259
				c-38.061,44.235-79.829,117.547-87.895,243.022C2084.616,2154.492,2227.668,2176.581,2333.97,2118.14z"/>
			<path style="fill:#FFFFFF;" d="M1238.246,1856.924c26.086,193.256,270.329,297.405,449.873,281.578
				c48.235-4.252,90.037-17.029,124.26-31.735c77.523-8.53,138.191-26.678,143.556-28.318c8.477-2.589,13.248-11.557,10.661-20.032
				c-0.126-0.417-0.27-0.825-0.427-1.223c-3.04-7.705-11.544-11.903-19.605-9.445c-2.723,0.829-273.686,81.794-398.495-21.146
				c-125.078-103.17-112.847-329.631-112.71-331.902c0,0-2.431,383.516,311.06,343.965c-15.821-9.395-30.883-20.985-44.301-35.509
				c-76.562-82.866-34.086-186.49-97.804-305.434c-27.556-51.44-80.901-116.812-195.048-169.533
				C1294.153,1611.214,1222.019,1736.707,1238.246,1856.924z"/>
		</g>
		<g>
			
				<linearGradient id="SVGID_00000169555104838672685070000012787823769091267721_" gradientUnits="userSpaceOnUse" x1="2150.575" y1="2623.5366" x2="2268.8188" y2="2623.5366" gradientTransform="matrix(-0.9999 0.0161 0.0161 0.9999 4903.7051 -55.7879)">
				<stop  offset="0" style="stop-color:#FEBBBA"/>
				<stop  offset="1" style="stop-color:#FF928E"/>
			</linearGradient>
			<path style="fill:url(#SVGID_00000169555104838672685070000012787823769091267721_);" d="M2752.048,2541.86
				c12.338,12.751,30.377,23.651,43.056,30.424c-18.393,23.501-43.415,47.142-76.668,70.422l-9.274,21.747l-31.424-36.452
				C2677.739,2628.001,2732.612,2599.582,2752.048,2541.86z"/>
			
				<linearGradient id="SVGID_00000168837744106025222750000016112417289636050843_" gradientUnits="userSpaceOnUse" x1="2269.4644" y1="3231.8811" x2="2358.1294" y2="3231.8811" gradientTransform="matrix(-0.9999 0.0161 0.0161 0.9999 4903.7051 -55.7879)">
				<stop  offset="0" style="stop-color:#09005D"/>
				<stop  offset="1" style="stop-color:#1A0F91"/>
			</linearGradient>
			<path style="fill:url(#SVGID_00000168837744106025222750000016112417289636050843_);" d="M2598.354,3245.304
				c-0.021-0.66,0.013-1.33,0.171-2.006c9.347-39.748,58.51-65.204,58.51-65.204l19.664,1.223
				c11.854,34.71,10.748,56.133,9.087,65.693c-0.045,0.268-0.123,0.523-0.189,0.783
				C2669.42,3247.501,2636.091,3248.984,2598.354,3245.304z"/>
			
				<linearGradient id="SVGID_00000084521002666626112960000009553080547784124814_" gradientUnits="userSpaceOnUse" x1="2491.4321" y1="3127.2822" x2="2168.8669" y2="3380.5613" gradientTransform="matrix(-0.9999 0.0161 0.0161 0.9999 4903.7051 -55.7879)">
				<stop  offset="0" style="stop-color:#4F52FF"/>
				<stop  offset="1" style="stop-color:#4042E2"/>
			</linearGradient>
			<path style="fill:url(#SVGID_00000084521002666626112960000009553080547784124814_);" d="M2685.597,3245.793
				c-0.823,3.197-3.133,5.713-6.131,6.394c-22.967,5.218-59.657,1.907-75.068,0.144c-3.4-0.389-5.93-3.487-6.044-7.028
				C2636.091,3248.984,2669.42,3247.501,2685.597,3245.793z"/>
			
				<linearGradient id="SVGID_00000080173287151843675530000000590266801413785994_" gradientUnits="userSpaceOnUse" x1="2294.1213" y1="3130.9407" x2="2277.1848" y2="3278.7502" gradientTransform="matrix(-0.9999 0.0161 0.0161 0.9999 4903.7051 -55.7879)">
				<stop  offset="0" style="stop-color:#FEBBBA"/>
				<stop  offset="1" style="stop-color:#FF928E"/>
			</linearGradient>
			<path style="fill:url(#SVGID_00000080173287151843675530000000590266801413785994_);" d="M2684.125,3149.939l-7.673,40.175
				c-0.563,2.944-2.781,5.177-5.508,5.478c-3.337,0.368-8.092,0.628-12.889,0.002c-4.301-0.562-7.36-4.875-6.674-9.565l5.208-35.646
				L2684.125,3149.939z"/>
			
				<linearGradient id="SVGID_00000106838000434972957880000005463481926766281115_" gradientUnits="userSpaceOnUse" x1="2548.7339" y1="3200.2607" x2="2226.1702" y2="3453.5383" gradientTransform="matrix(-0.9999 0.0161 0.0161 0.9999 4903.7051 -55.7879)">
				<stop  offset="0" style="stop-color:#4F52FF"/>
				<stop  offset="1" style="stop-color:#4042E2"/>
			</linearGradient>
			<path style="fill:url(#SVGID_00000106838000434972957880000005463481926766281115_);" d="M2513.326,3248.167
				c21.679-0.958,32.856-3.692,38.617-6.156c0.049,2.156,0.073,4.351,0.039,6.626c-0.035,2.43-1.803,4.399-4.017,4.421
				l-119.102,1.149c-3.802,0.037-6.094-4.335-4.501-7.846C2439.998,3247.398,2479.813,3249.645,2513.326,3248.167z"/>
			
				<linearGradient id="SVGID_00000157266514454890491770000017914976691887973277_" gradientUnits="userSpaceOnUse" x1="2404.4783" y1="3234.2405" x2="2532.1091" y2="3234.2405" gradientTransform="matrix(-0.9999 0.0161 0.0161 0.9999 4903.7051 -55.7879)">
				<stop  offset="0" style="stop-color:#09005D"/>
				<stop  offset="1" style="stop-color:#1A0F91"/>
			</linearGradient>
			<path style="fill:url(#SVGID_00000157266514454890491770000017914976691887973277_);" d="M2424.363,3246.36
				c0.138-0.306,0.256-0.616,0.456-0.906c10.281-14.865,36.597-44.559,89.323-58.103l25.38-1.211c0,0,11.623,19.47,12.422,55.87
				c-5.761,2.464-16.938,5.198-38.617,6.156C2479.813,3249.645,2439.998,3247.398,2424.363,3246.36z"/>
			
				<linearGradient id="SVGID_00000044878332671233838280000012641058813350107797_" gradientUnits="userSpaceOnUse" x1="2432.0828" y1="3146.7488" x2="2415.1462" y2="3294.5593" gradientTransform="matrix(-0.9999 0.0161 0.0161 0.9999 4903.7051 -55.7879)">
				<stop  offset="0" style="stop-color:#FEBBBA"/>
				<stop  offset="1" style="stop-color:#FF928E"/>
			</linearGradient>
			<path style="fill:url(#SVGID_00000044878332671233838280000012641058813350107797_);" d="M2543.61,3147.582
				c-0.251,1.897-3.268,30.72-4.436,41.896c-0.278,2.656-2.164,4.738-4.58,5.066c-4.315,0.586-11.305,1.169-17.446,0.013
				c-3.313-0.624-5.754-3.759-5.814-7.447l-0.727-45.156L2543.61,3147.582z"/>
			
				<linearGradient id="SVGID_00000090272990265984536150000005230026919349927344_" gradientUnits="userSpaceOnUse" x1="2503.4407" y1="2891.3965" x2="2718.1455" y2="2891.3965">
				<stop  offset="0" style="stop-color:#09005D"/>
				<stop  offset="1" style="stop-color:#1A0F91"/>
			</linearGradient>
			<path style="fill:url(#SVGID_00000090272990265984536150000005230026919349927344_);" d="M2555.526,2622.27
				c0,0-57.496,233.74-51.671,526.618c0.106,5.34,3.929,9.889,9.173,10.905c7.726,1.498,19.076,3.242,28.443,2.827
				c5-0.221,9.122-3.998,9.885-8.945c7.776-50.498,52.488-334.996,79.824-381.507c0,0,22.544,252.382,18.751,383.569
				c-0.094,3.263,2.339,6.051,5.585,6.374c4.926,0.489,12.799,0.793,22.792-0.431c3.793-0.465,6.813-3.386,7.295-7.177
				c5.43-42.72,36.551-296.984,32.11-479.714c-0.25-10.305-28.142-54.677-28.142-54.677L2555.526,2622.27z"/>
			
				<linearGradient id="SVGID_00000013915678341199348450000013538955353974069939_" gradientUnits="userSpaceOnUse" x1="20026.0469" y1="-10097.9824" x2="19395.4395" y2="-9706.1045" gradientTransform="matrix(-1 0 0 1 2468.4175 0)">
				<stop  offset="0" style="stop-color:#FF928E"/>
				<stop  offset="1" style="stop-color:#FE7062"/>
			</linearGradient>
			<path style="fill:url(#SVGID_00000013915678341199348450000013538955353974069939_);" d="M2465.811,2341.954
				c9.739-12.62,18.232-26.116,25.294-39.994c9.864-19.385,1.019,12.428,3.449-9.321c75.297-56.203,190.461-30.224,234.924-25.349
				c14.58,1.599,28.002,8.557,37.769,19.499c38.733,43.391,124.11,162.519,27.857,285.495
				c-12.679-6.774-30.718-17.674-43.056-30.424c10.372-30.803,10.631-69.959-12.913-117.588c-0.717,3.816-1.618,7.598-2.727,11.324
				c-29.783,99.933-30.125,182.7-29.748,201.768c0.052,2.59-1.465,4.946-3.854,5.948c-41.039,17.217-120.708,8.647-147.463,5.099
				c-4.906-0.65-8.272-5.153-7.674-10.066c11.571-95.113-58.172-250.149-76.558-288.966
				C2469.789,2346.586,2467.983,2344.082,2465.811,2341.954z"/>
			
				<linearGradient id="SVGID_00000117658073198555053390000015235637135700002195_" gradientUnits="userSpaceOnUse" x1="2277.0835" y1="2238.6741" x2="2143.2153" y2="2484.6179" gradientTransform="matrix(-0.9999 0.0161 0.0161 0.9999 4903.7051 -55.7879)">
				<stop  offset="0" style="stop-color:#53D8FF"/>
				<stop  offset="1" style="stop-color:#3840F7"/>
			</linearGradient>
			<path style="fill:url(#SVGID_00000117658073198555053390000015235637135700002195_);" d="M2743.181,2416.769
				c15.914-45.829,8.989-100.747,8.916-101.296l-4.578,0.598c0.07,0.54,6.85,54.404-8.702,99.183L2743.181,2416.769z"/>
			<path style="opacity:0.33;fill:#91B3FA;" d="M2633.336,2766.199c1.026-0.017,1.954-0.72,2.205-1.766
				c4.764-19.67,42.448-41.81,42.828-42.031c1.102-0.642,1.476-2.055,0.834-3.158c-0.643-1.102-2.05-1.478-3.159-0.834
				c-1.619,0.943-39.767,23.356-44.991,44.936c-0.3,1.239,0.462,2.488,1.701,2.787
				C2632.948,2766.182,2633.145,2766.202,2633.336,2766.199z"/>
			<g>
				
					<linearGradient id="SVGID_00000003065672401447252180000005662847550057344169_" gradientUnits="userSpaceOnUse" x1="20004.4453" y1="-10132.7148" x2="19373.834" y2="-9740.8359" gradientTransform="matrix(-1 0 0 1 2468.4175 0)">
					<stop  offset="0" style="stop-color:#FF928E"/>
					<stop  offset="1" style="stop-color:#FE7062"/>
				</linearGradient>
				<path style="fill:url(#SVGID_00000003065672401447252180000005662847550057344169_);" d="M2365.035,2209.325
					c54.041,68.358,132.203,67.086,185.296,71.635c70.097,6.006,86.989,50.868,86.989,50.868l-119.9,41.773
					c-120.95,0.373-174.191-74.767-197.314-133.282C2334.32,2223.87,2350.986,2214.573,2365.035,2209.325z"/>
				
					<linearGradient id="SVGID_00000049930511236119350070000013072483697137620386_" gradientUnits="userSpaceOnUse" x1="242.6088" y1="757.2881" x2="-153.1214" y2="1263.5902" gradientTransform="matrix(-0.7297 -0.6838 -0.6838 0.7297 3047.4695 1530.7227)">
					<stop  offset="0" style="stop-color:#FEBBBA"/>
					<stop  offset="1" style="stop-color:#FF928E"/>
				</linearGradient>
				<path style="fill:url(#SVGID_00000049930511236119350070000013072483697137620386_);" d="M2311.808,2088.995l10.338,30.762
					c10.741,38.661,25.581,67.677,42.888,89.569c-14.049,5.248-30.715,14.544-44.93,30.994
					c-14.72-37.249-17.238-67.762-17.238-67.762C2282.023,2100.124,2311.808,2088.995,2311.808,2088.995z"/>
			</g>
			
				<linearGradient id="SVGID_00000093888834853279318390000017919592864266909853_" gradientUnits="userSpaceOnUse" x1="295.5722" y1="798.6834" x2="-100.1594" y2="1304.9873" gradientTransform="matrix(-0.7297 -0.6838 -0.6838 0.7297 3047.4695 1530.7227)">
				<stop  offset="0" style="stop-color:#FEBBBA"/>
				<stop  offset="1" style="stop-color:#FF928E"/>
			</linearGradient>
			<path style="fill:url(#SVGID_00000093888834853279318390000017919592864266909853_);" d="M2222.842,2060.816
				c5.54-3.214,12.241-3.734,18.211-1.414l58.268,22.637c0,0,5.725-4.829-0.399-17.495c-6.125-12.666,6.169-21.297,6.169-21.297
				s7.494,18.236,17.783,45.662c5.884,15.684,3.072,31.007-0.412,41.26l-24.32,4.119c-33.426-16.605-61.223-39.839-84.929-67.889
				L2222.842,2060.816z"/>
			
				<linearGradient id="SVGID_00000049930888181168502890000000630056630821072821_" gradientUnits="userSpaceOnUse" x1="-5146.1929" y1="2309.1736" x2="-5129.6543" y2="2207.1841" gradientTransform="matrix(-1 0 0 1 -2522.8242 0)">
				<stop  offset="0" style="stop-color:#FEBBBA"/>
				<stop  offset="1" style="stop-color:#FF928E"/>
			</linearGradient>
			<path style="fill:url(#SVGID_00000049930888181168502890000000630056630821072821_);" d="M2639.583,2169.7
				c0,0,12.28,73.262,13.926,96.283c0,0-59.295,16.377-74.775,7.596l1.94-88.619L2639.583,2169.7z"/>
			<g>
				
					<linearGradient id="SVGID_00000045610776008005250180000007462854485999780517_" gradientUnits="userSpaceOnUse" x1="9743.9824" y1="2130.3506" x2="9631.5859" y2="2216.3506" gradientTransform="matrix(-1 0 0 1 12311.6543 0)">
					<stop  offset="0" style="stop-color:#FEBBBA"/>
					<stop  offset="1" style="stop-color:#FF928E"/>
				</linearGradient>
				<path style="fill:url(#SVGID_00000045610776008005250180000007462854485999780517_);" d="M2571.794,2090.596
					c0,0-19.661,45.165-20.981,68.87c-1.32,23.706-6.428,39.088,20.981,43.861c27.41,4.773,50.5-8.881,63.01-32.494
					c0,0,19.6-36.386,15.203-51.287C2645.61,2104.645,2571.794,2090.596,2571.794,2090.596z"/>
				
					<linearGradient id="SVGID_00000067920605576373234090000011026552085694979470_" gradientUnits="userSpaceOnUse" x1="9665.0195" y1="2062.4622" x2="9766.7959" y2="2193.499" gradientTransform="matrix(-1 0 0 1 12311.6543 0)">
					<stop  offset="0" style="stop-color:#09005D"/>
					<stop  offset="1" style="stop-color:#1A0F91"/>
				</linearGradient>
				<path style="fill:url(#SVGID_00000067920605576373234090000011026552085694979470_);" d="M2625.437,2153.855h-3.465
					c0,0,14.278-29.285,1.733-34.43c-12.545-5.145-62.236-15.278-72.958-32.91c-10.336-16.998-1.118-38.955,12.673-45.1
					c0.873-0.389,1.901,0.022,2.347,0.866l1.143,2.162c0.782,1.48,2.969,1.256,3.434-0.352c0.442-1.526,2.498-1.859,3.337-0.51
					c3.282,5.273,12.168,13.847,36.003,18.246c33.82,6.242,56.178,19.929,56.728,43.302c0.035,1.481,1.618,2.297,2.883,1.526
					c2.497-1.521,6.492-2.236,11.832,2.255c9.286,7.808,5.487,28.064-14.871,44.726c-0.967,0.792-0.959,2.302,0.088,2.984
					c3.691,2.403,9.191,8.119-5.064,15.739c-14.582,7.795-23.212,6.945-26.469,6.112c-0.876-0.224-1.466-1.023-1.41-1.926
					l1.28-20.713c0.066-1.071-0.785-1.976-1.858-1.976H2625.437z"/>
				
					<linearGradient id="SVGID_00000035496148072904019200000006654870628666028954_" gradientUnits="userSpaceOnUse" x1="9730.041" y1="2112.1299" x2="9617.6445" y2="2198.1301" gradientTransform="matrix(-1 0 0 1 12311.6543 0)">
					<stop  offset="0" style="stop-color:#FEBBBA"/>
					<stop  offset="1" style="stop-color:#FF928E"/>
				</linearGradient>
				<path style="fill:url(#SVGID_00000035496148072904019200000006654870628666028954_);" d="M2624.585,2158.189
					c0,0,7.501-28.851,20.436-20.761s-6.712,32.326-17.111,33.406L2624.585,2158.189z"/>
			</g>
		</g>
		<g>
			
				<linearGradient id="SVGID_00000084528085277803166250000007463420849287164845_" gradientUnits="userSpaceOnUse" x1="2515.7517" y1="2096.1741" x2="3042.7605" y2="2589.4006">
				<stop  offset="0" style="stop-color:#FEBBBA"/>
				<stop  offset="1" style="stop-color:#FF928E"/>
			</linearGradient>
			<path style="fill:url(#SVGID_00000084528085277803166250000007463420849287164845_);" d="M2879.388,2283.107
				c0,0-191.096,76.264-175.104,136.233c15.992,59.968,119.937-39.979,119.937-39.979L2879.388,2283.107z"/>
			<g>
				<rect x="2763.827" y="1899.508" style="fill:#7D97F4;" width="24.256" height="659.757"/>
				<path style="fill:#91B3FA;" d="M3059.048,1483.943l-42.494,421.075c-2.97,29.427-28.668,51.245-58.188,49.4l-364.323-22.77
					c-27.713-1.732-49.795-23.838-51.497-51.553l-27.028-440.167c-2.073-33.773,26.534-61.401,60.216-58.151l433.845,41.862
					C3039.926,1426.567,3062.109,1453.609,3059.048,1483.943z"/>
			</g>
			
				<linearGradient id="SVGID_00000034773335399677618170000011097805779079863456_" gradientUnits="userSpaceOnUse" x1="-2224.7119" y1="2008.6014" x2="-2148.9175" y2="2198.7297" gradientTransform="matrix(1 0 0 1 5134.4883 0)">
				<stop  offset="0" style="stop-color:#09005D"/>
				<stop  offset="1" style="stop-color:#1A0F91"/>
			</linearGradient>
			<path style="fill:url(#SVGID_00000034773335399677618170000011097805779079863456_);" d="M2954.717,2110.875
				c0,0,25.552,12.429,30.251,26.706c3.77,11.457,32.024,12.934,34.815,35.464c1.441,11.632,10.049,20.948,21.635,22.724
				c28.856,4.423,73.327,19.408,80.443,69.51c5.431,38.242-14.064,52.742-34.524,57.762c-15.027,3.686-25.014,18.302-21.974,33.473
				c2.916,14.552-1.432,31.374-26.642,44.676c-56.492,29.809-112.908-70.62-112.908-70.62l-11.562-175.354L2954.717,2110.875z"/>
			
				<linearGradient id="SVGID_00000034059303348041167490000012619613346598998964_" gradientUnits="userSpaceOnUse" x1="3439.7209" y1="2530.5825" x2="3114.7498" y2="3553.343">
				<stop  offset="0" style="stop-color:#4F52FF"/>
				<stop  offset="1" style="stop-color:#4042E2"/>
			</linearGradient>
			<path style="fill:url(#SVGID_00000034059303348041167490000012619613346598998964_);" d="M3186.925,3210.409l3.656,30.052
				c0.694,5.701,5.183,10.209,10.888,10.862c9.634,1.1,25.094,2.229,40.221,0.629c6.639-0.702,10.949-7.425,8.927-13.788
				c-3.687-11.602-10.433-29.018-20.16-39.266h-33.338C3190.956,3198.899,3186.18,3204.29,3186.925,3210.409z"/>
			
				<linearGradient id="SVGID_00000016755627716052660360000005744561769786099863_" gradientUnits="userSpaceOnUse" x1="-2219.2168" y1="3479.271" x2="-2126.7268" y2="2398.292" gradientTransform="matrix(1 0 0 1 5134.4883 0)">
				<stop  offset="0" style="stop-color:#FEBBBA"/>
				<stop  offset="1" style="stop-color:#FF928E"/>
			</linearGradient>
			<path style="fill:url(#SVGID_00000016755627716052660360000005744561769786099863_);" d="M2925.813,2858.363l-5.627,33.101
				c0,0,18.844,190.866,22.195,267.212c0.525,11.97-2.572,23.798-8.854,34.001l-32.765,53.207l83.272-49.138l1.658-10.162
				l-13.632-18.743l17.856-213.817c1.049-12.562-1.543-25.158-7.466-36.284l-17.224-32.359L2925.813,2858.363z"/>
			
				<linearGradient id="SVGID_00000181777876460631350540000016337303774182758796_" gradientUnits="userSpaceOnUse" x1="3189.7881" y1="2451.1689" x2="2864.8147" y2="3473.9363">
				<stop  offset="0" style="stop-color:#4F52FF"/>
				<stop  offset="1" style="stop-color:#4042E2"/>
			</linearGradient>
			<path style="fill:url(#SVGID_00000181777876460631350540000016337303774182758796_);" d="M2895.279,3253.592h26.574
				c4.975,0,9.666-2.283,12.699-6.225c8.284-10.764,25.448-31.766,33.655-32.314c11.048-0.737,9.635,38.54,9.635,38.54h6.193
				l7.844-48.807c1.975-12.281-4.133-24.445-15.161-30.2l0,0c0,0-2.525,18.677-16.219,26.939
				c-13.694,8.262-55.727,37.848-55.727,37.848s-5.148-0.734-10.8,0.288C2885.586,3241.176,2886.759,3253.592,2895.279,3253.592z"/>
			
				<linearGradient id="SVGID_00000020378211478700266310000016720316474468177080_" gradientUnits="userSpaceOnUse" x1="-2033.1674" y1="3495.3557" x2="-1940.653" y2="2414.0933" gradientTransform="matrix(1 0 0 1 5134.4883 0)">
				<stop  offset="0" style="stop-color:#FEBBBA"/>
				<stop  offset="1" style="stop-color:#FF928E"/>
			</linearGradient>
			<path style="fill:url(#SVGID_00000020378211478700266310000016720316474468177080_);" d="M3039.869,2874.085
				c0,0,110.389,209.398,127.937,257.206c17.548,47.809,23.695,87.693,23.93,91.469c0.368,5.902,7.708,11.562,27.941,11.562
				c10.441,0,15.556-4.186,18.06-8.238c2.137-3.456,2.247-7.781,0.446-11.424c-6.386-12.923-26.65-54.222-34.155-72.952
				c-8.96-22.364-28.235-123.714-38.806-158.952c-10.571-35.239-22.519-73.463-68.552-108.671
				C3096.671,2874.085,3065.071,2843.135,3039.869,2874.085z"/>
			
				<linearGradient id="SVGID_00000035498571711696599390000004984812828862697360_" gradientUnits="userSpaceOnUse" x1="3385.7078" y1="2809.2976" x2="3081.6643" y2="2554.8018">
				<stop  offset="0" style="stop-color:#FF928E"/>
				<stop  offset="1" style="stop-color:#FE7062"/>
			</linearGradient>
			<path style="fill:url(#SVGID_00000035498571711696599390000004984812828862697360_);" d="M2970.134,2530.976
				c-28.476-120.663,45.985-179.6,45.985-179.6c-3.998-47.975-130.772-72.88-130.772-72.88s-79.135,57.855-69.747,103.139
				c5.502,26.541,55.624,158.976,55.624,158.976S2917.571,2562.545,2970.134,2530.976z"/>
			
				<linearGradient id="SVGID_00000072276530718186195940000007677806005925605562_" gradientUnits="userSpaceOnUse" x1="2865.479" y1="2713.2266" x2="3100.1755" y2="2713.2266">
				<stop  offset="0" style="stop-color:#09005D"/>
				<stop  offset="1" style="stop-color:#1A0F91"/>
			</linearGradient>
			<path style="fill:url(#SVGID_00000072276530718186195940000007677806005925605562_);" d="M3033.268,2590.711
				c-11.589-34.911-63.134-59.736-63.134-59.736c-52.563,31.57-98.91,9.635-98.91,9.635s-10.394,39.729-3.22,76.65
				c7.174,36.921,52.183,274.203,52.183,274.203c70.919,14.37,179.989-14.457,179.989-14.457
				C3055.003,2796.806,3044.856,2625.623,3033.268,2590.711z"/>
			
				<linearGradient id="SVGID_00000176750243557792543750000016877619548477736628_" gradientUnits="userSpaceOnUse" x1="-2229.3604" y1="2413.7498" x2="-2211.9863" y2="2286.646" gradientTransform="matrix(1 0 0 1 5134.4883 0)">
				<stop  offset="0" style="stop-color:#FEBBBA"/>
				<stop  offset="1" style="stop-color:#FF928E"/>
			</linearGradient>
			<path style="fill:url(#SVGID_00000176750243557792543750000016877619548477736628_);" d="M2937.081,2198.758l23.151,103.991
				c2.217,9.159-6.134,7.66-15.394,5.914c-15.166-2.859-34.712-8.748-41.247-20.549c-0.665-1.201-0.996-2.558-1.185-3.918
				l-9.946-72.109c-0.79-5.721,2.303-11.273,7.583-13.615l19.194-8.51C2926.626,2186.685,2935.18,2190.902,2937.081,2198.758z"/>
			<g>
				
					<linearGradient id="SVGID_00000017506312736352227200000000009145856457001899_" gradientUnits="userSpaceOnUse" x1="-2273.2134" y1="2249.8748" x2="-2121.6238" y2="1980.0966" gradientTransform="matrix(1 0 0 1 5134.4883 0)">
					<stop  offset="0" style="stop-color:#FEBBBA"/>
					<stop  offset="1" style="stop-color:#FF928E"/>
				</linearGradient>
				<path style="fill:url(#SVGID_00000017506312736352227200000000009145856457001899_);" d="M2909.917,2099.745
					c0,0-27.418,11.578-46.061,51.199c-18.644,39.621-4.721,57.915,12.766,60.427c17.488,2.511,43.64,2.128,71.304-23.466
					S2945.56,2086.021,2909.917,2099.745z"/>
				
					<linearGradient id="SVGID_00000085943456486709995110000011741015246386797972_" gradientUnits="userSpaceOnUse" x1="-2240.6138" y1="2014.9401" x2="-2164.8196" y2="2205.0684" gradientTransform="matrix(1 0 0 1 5134.4883 0)">
					<stop  offset="0" style="stop-color:#09005D"/>
					<stop  offset="1" style="stop-color:#1A0F91"/>
				</linearGradient>
				<path style="fill:url(#SVGID_00000085943456486709995110000011741015246386797972_);" d="M2929.331,2166.752
					c0,0,20.686-57.967-30.708-58.652l-12.093,8.453c0,0-18.857-32.139,12.093-47.481c30.95-15.341,67.174-2.669,80.344,39.028
					c13.17,41.698,15.419,69.61-6.493,89.559c-21.912,19.95-30.942-2.67-30.942-2.67s11.932-18.66,7.075-28.643
					c-4.857-9.983-16.062,2.065-16.062,2.065L2929.331,2166.752z"/>
				
					<linearGradient id="SVGID_00000150789920407153362010000018181010535252204974_" gradientUnits="userSpaceOnUse" x1="-2240.9453" y1="2268.0061" x2="-2089.3564" y2="1998.2285" gradientTransform="matrix(1 0 0 1 5134.4883 0)">
					<stop  offset="0" style="stop-color:#FEBBBA"/>
					<stop  offset="1" style="stop-color:#FF928E"/>
				</linearGradient>
				<path style="fill:url(#SVGID_00000150789920407153362010000018181010535252204974_);" d="M2935.094,2173.208
					c0,0,10.459-29.86,24.412-17.969c13.952,11.892-11.34,27.582-21.242,32.665L2935.094,2173.208z"/>
			</g>
			
				<linearGradient id="SVGID_00000031171389170368371240000011973723863768706451_" gradientUnits="userSpaceOnUse" x1="2869.1514" y1="2399.5874" x2="3049.3254" y2="2235.1782">
				<stop  offset="0" style="stop-color:#FEBBBA"/>
				<stop  offset="1" style="stop-color:#FF928E"/>
			</linearGradient>
			<path style="fill:url(#SVGID_00000031171389170368371240000011973723863768706451_);" d="M3016.119,2351.375
				c0,0,23.987,123.934-79.958,155.917c-103.945,31.983-176.493-108.386-176.493-108.386s-19.403-19.546-19.403-43.533
				s19.989-40.993,19.989-40.993s31.984,44.991,31.984,68.978s99.946,91.951,135.927,71.962
				c34.97-19.428,35.476-59.188,33.543-77.853c-0.76-7.343,1.471-14.658,6.33-20.215
				C2978.801,2344.944,3002.318,2332.054,3016.119,2351.375z"/>
			
				<linearGradient id="SVGID_00000142894597256552766400000003940516257314635419_" gradientUnits="userSpaceOnUse" x1="3012.2454" y1="2288.9185" x2="2665.4106" y2="2464.5879">
				<stop  offset="0" style="stop-color:#FEBBBA"/>
				<stop  offset="1" style="stop-color:#FF928E"/>
			</linearGradient>
			<path style="fill:url(#SVGID_00000142894597256552766400000003940516257314635419_);" d="M2732.696,2405.316l2.99,41.863
				c0.367,5.132,5.902,8.26,10.426,5.809c4.134-2.24,9.138-6.491,14.143-14.487c11.01-17.589,1.806-39.246-21.425-39.588
				C2735.301,2398.861,2732.445,2401.797,2732.696,2405.316z"/>
			<g>
				<g>
					<path style="fill:#FFFFFF;" d="M2834.582,1744.659l0.01,4.676l0.023,8.221l7.708-0.008l84.893-0.067l14.339-0.012l0.595-0.006
						c8.839-0.088,17.439-1.967,25.442-5.507c0.175-0.079,0.35-0.156,0.524-0.235l-40.23,82.549
						c-7.204,14.784-21.303,24.228-36.829,24.615l-46.854,0.743l-7.38,0.115l-0.297,7.871l-0.424,11.137l-36.593-67.236
						L2834.582,1744.659z"/>
				</g>
				<g style="opacity:0.5;">
					<path style="fill:#FFFFFF;" d="M2958.562,1611.018l32.416,66.1c4.405,8.98,4.38,19.61-0.069,28.455l-23.318,46.384
						c-8.003,3.54-16.604,5.419-25.442,5.507l-0.595,0.006l-14.339,0.012l-46.649-90.358c-0.663-1.284-0.27-2.373,0.024-2.911
						c0.292-0.538,0.986-1.44,2.37-1.434l47.317,0.624l4.689,0.061l2.039-4.525L2958.562,1611.018z"/>
				</g>
				<g>
					<path style="opacity:0.5;fill:#FFFFFF;" d="M2673.785,1758.183l100.863,1.74c1.409,0.021,2.121,0.957,2.421,1.515
						c0.299,0.557,0.695,1.677-0.005,2.971l-24.558,45.19l-2.46,4.527l2.779,4.285l29.412,45.349l-73.142-1.344
						c-10.107-0.185-19.318-5.662-24.607-14.652l-27.749-47.151c1.297-9.963,4.444-19.595,9.334-28.462L2673.785,1758.183z"/>
				</g>
				<g>
					<path style="fill:#FFFFFF;" d="M2865.204,1491.688c15.335,0.448,29.583,9.715,37.231,24.162l23.033,43.489l3.612,6.823
						l6.352-3.406l8.976-4.806l-35.617,65.404l-70.789-0.43l3.788-2.263l6.647-3.972l-3.861-7.183l-43.421-80.734l-7.498-13.941
						c-4.758-8.84-10.981-16.583-18.364-22.91c-0.157-0.134-0.315-0.269-0.473-0.402l89.28,0.152
						C2864.468,1491.675,2864.838,1491.677,2865.204,1491.688z"/>
				</g>
				<g style="opacity:0.69;">
					<path style="fill:#FFFFFF;" d="M2775.293,1491.923c7.383,6.326,13.606,14.069,18.364,22.91l7.498,13.941l-50.94,88.593
						c-0.711,1.244-1.819,1.418-2.416,1.412c-0.62-0.007-1.78-0.218-2.506-1.55l-25.003-45.81l-2.508-4.593l-4.979,0.238
						l-53.385,2.538l39.212-64.701c5.32-8.781,14.515-13.927,24.581-13.775L2775.293,1491.923z"/>
				</g>
				<g>
					<path style="fill:#FFFFFF;" d="M2618.355,1607.512l76.859,1.929l38.016,67.347l-3.92-2.416l-6.906-4.25l-3.971,7.19
						l-44.648,80.872l-7.711,13.969c-4.89,8.867-8.038,18.499-9.334,28.462c-0.028,0.211-0.054,0.422-0.08,0.634l-50.148-82.772
						c-9.078-14.987-9.435-33.748-0.924-48.902l24.871-44.287l3.899-6.943l-6.615-4.479L2618.355,1607.512z"/>
				</g>
			</g>
		</g>
	</g>
</g>
</svg>
